<svg width="584" height="471" viewBox="0 0 584 471" fill="none" xmlns="http://www.w3.org/2000/svg">
<path d="M259.428 45.8191C173.111 -5.10281 40.2198 64.1615 53.5327 195.21C76.2327 418.655 240.805 436.501 383.267 403.28C569.686 359.809 606.869 153.094 434.229 176.147C295.682 194.648 367.323 109.471 259.428 45.8191Z" fill="#FCDDD4"/>
<mask id="mask0_11_2" style="mask-type:alpha" maskUnits="userSpaceOnUse" x="52" y="29" width="494" height="388">
<path d="M258.59 45.9645C172.05 -4.57611 39.4656 65.2738 53.3564 196.263C77.0419 419.604 241.692 436.724 384.006 402.876C570.231 358.583 606.502 151.706 433.965 175.52C295.501 194.632 366.766 109.14 258.59 45.9645Z" fill="#FCDDD4"/>
</mask>
<g mask="url(#mask0_11_2)">
<path opacity="0.7" d="M50.1122 2.27839C80.1204 -3.17465 148.418 -5.6004 181.542 28.3209C222.948 70.7226 61.6383 78.9595 102.505 113.251C143.372 147.542 254.714 64.8295 284.228 89.5954C313.743 114.361 183.276 135.076 212.194 167C241.113 198.924 368.405 114.278 405.731 143.684C443.058 173.09 286.231 200.406 345.261 249.938" stroke="url(#paint0_linear_11_2)" stroke-width="2"/>
<path d="M127.997 384.031C139.079 358.737 168.745 346.796 194.259 357.359L444.154 460.813L401.619 557.902L105.526 435.322L127.997 384.031Z" fill="#F58A6B"/>
</g>
<path fill-rule="evenodd" clip-rule="evenodd" d="M95.8144 205.677C97.4512 207.024 98.7309 208.467 99.7407 209.855L102.372 206.343C101.124 205.019 99.9084 203.815 98.4544 202.673L95.8144 205.677Z" fill="#3E1A0B"/>
<path fill-rule="evenodd" clip-rule="evenodd" d="M104.348 211.809C102.868 209.144 99.5646 208.244 96.9309 209.842L93.4406 212.053C90.8069 213.652 89.9695 217.193 91.3301 219.889C92.8097 222.554 96.113 223.455 98.7467 221.857L102.237 219.646C104.871 218.047 105.859 214.593 104.348 211.809Z" fill="#F69E9F"/>
<path fill-rule="evenodd" clip-rule="evenodd" d="M245.546 100.246L183.718 110.435L180.424 90.5249C180.097 88.8268 178.492 87.5986 176.643 87.839L127.633 95.8688C125.934 96.1964 124.706 97.8012 124.946 99.6502L128.24 119.56L69.9594 129.181C68.4991 129.444 67.3576 130.898 67.6213 132.358L107.512 375.513C107.776 376.973 109.23 378.114 110.691 377.85L286.309 349.034C287.769 348.771 288.911 347.317 288.647 345.857L248.637 102.734C248.579 101.091 247.038 100.101 245.546 100.246Z" fill="url(#paint1_linear_11_2)"/>
<path fill-rule="evenodd" clip-rule="evenodd" d="M236.966 131.049L82.6346 156.457C81.2933 156.688 80.358 157.96 80.5898 159.301L115.149 369.698C115.38 371.039 116.651 371.974 117.993 371.742L272.324 346.334C273.666 346.102 274.601 344.831 274.369 343.49L239.81 133.093C239.579 131.752 238.307 130.817 236.966 131.049Z" fill="#F36F49"/>
<path fill-rule="evenodd" clip-rule="evenodd" d="M236.491 123.592L85.9138 148.249C84.5725 148.481 83.7562 149.72 83.988 151.061L117.715 356.451C117.947 357.792 119.186 358.608 120.528 358.376L271.193 333.568C272.534 333.336 273.35 332.097 273.118 330.756L239.391 125.366C239.072 124.176 237.833 123.36 236.491 123.592Z" fill="#FAFBFC"/>
<path opacity="0.8" d="M230.961 132.472L93.9796 155.018C93.2335 155.09 92.583 155.519 92.2344 156.123C91.8858 156.727 91.6882 157.417 91.7605 158.163L122.89 347.667C122.962 348.413 123.391 349.063 123.995 349.412C124.599 349.76 125.29 349.958 126.036 349.885L263.049 327.459C263.795 327.387 264.446 326.957 264.795 326.354C265.143 325.75 265.341 325.059 265.268 324.313L234.107 134.691C234.035 133.945 233.606 133.295 233.002 132.946C232.398 132.598 231.707 132.4 230.961 132.472ZM264.165 324.481C264.293 324.958 264.15 325.378 263.857 325.712C263.564 326.046 263.239 326.26 262.762 326.388L125.9 348.901C125.424 349.029 125.003 348.886 124.669 348.593C124.335 348.3 124.121 347.975 123.993 347.499L92.8318 157.876C92.7043 157.4 92.8467 156.979 93.14 156.646C93.4333 156.312 93.7586 156.097 94.2347 155.97L231.216 133.425C231.692 133.297 232.113 133.439 232.447 133.733C232.781 134.026 232.996 134.351 233.123 134.827L264.165 324.481Z" fill="#F58A6B"/>
<path fill-rule="evenodd" clip-rule="evenodd" d="M152.918 97.3852C149.998 97.9126 148.04 100.606 148.567 103.526C149.095 106.446 151.788 108.403 154.709 107.876C157.629 107.348 159.587 104.655 159.06 101.735C158.564 98.9338 155.839 96.8577 152.918 97.3852Z" fill="#FAFBFC"/>
<path fill-rule="evenodd" clip-rule="evenodd" d="M194.041 105.628L117.038 118.225C115.339 118.552 114.111 120.157 114.351 122.006L117.94 143.495C118.267 145.193 119.872 146.421 121.722 146.181L198.725 133.584C200.423 133.256 201.652 131.652 201.411 129.803L197.91 108.163C197.463 106.497 195.739 105.3 194.041 105.628Z" fill="#F58A6B"/>
<path opacity="0.8" fill-rule="evenodd" clip-rule="evenodd" d="M152.598 115.712L123.264 120.511C121.922 120.743 120.987 122.014 121.219 123.355L124.008 139.955C124.24 141.297 125.511 142.231 126.853 142L156.187 137.201C157.529 136.969 158.464 135.698 158.232 134.357L155.443 117.756C155.211 116.415 153.94 115.48 152.598 115.712Z" fill="#F36F49"/>
<path opacity="0.2" d="M148.508 170.021L148.848 172.087L229.471 158.834L229.131 156.768L148.508 170.021Z" fill="#EE4D47"/>
<path opacity="0.2" d="M149.357 175.251L149.697 177.318L230.32 164.065L229.98 161.998L149.357 175.251Z" fill="#EE4D47"/>
<path opacity="0.2" d="M190.418 173.705L190.758 175.771L231.13 169.135L230.79 167.068L190.418 173.705Z" fill="#EE4D47"/>
<path opacity="0.2" d="M150.204 180.343L150.544 182.41L188.363 176.193L188.023 174.126L150.204 180.343Z" fill="#EE4D47"/>
<path opacity="0.2" d="M154.069 204.206L154.409 206.273L235.032 193.02L234.692 190.953L154.069 204.206Z" fill="#EE4D47"/>
<path opacity="0.2" d="M154.918 209.438L155.258 211.504L235.881 198.251L235.541 196.184L154.918 209.438Z" fill="#EE4D47"/>
<path opacity="0.2" d="M196.102 207.87L196.442 209.937L236.814 203.301L236.475 201.234L196.102 207.87Z" fill="#EE4D47"/>
<path opacity="0.2" d="M155.767 214.528L156.107 216.595L193.925 210.378L193.586 208.312L155.767 214.528Z" fill="#EE4D47"/>
<path opacity="0.2" d="M159.126 234.865L159.465 236.932L240.088 223.679L239.749 221.612L159.126 234.865Z" fill="#EE4D47"/>
<path opacity="0.2" d="M159.975 240.097L160.315 242.164L240.938 228.911L240.598 226.844L159.975 240.097Z" fill="#EE4D47"/>
<path opacity="0.2" d="M201.158 238.53L201.498 240.597L241.87 233.96L241.53 231.893L201.158 238.53Z" fill="#EE4D47"/>
<path opacity="0.2" d="M160.822 245.189L161.162 247.255L198.98 241.039L198.641 238.972L160.822 245.189Z" fill="#EE4D47"/>
<path opacity="0.2" d="M164.295 266.446L164.634 268.512L245.258 255.259L244.918 253.193L164.295 266.446Z" fill="#EE4D47"/>
<path opacity="0.2" d="M165.166 271.799L165.505 273.866L246.129 260.613L245.789 258.546L165.166 271.799Z" fill="#EE4D47"/>
<path opacity="0.2" d="M206.347 270.232L206.687 272.299L247.059 265.662L246.72 263.596L206.347 270.232Z" fill="#EE4D47"/>
<path opacity="0.2" d="M166.012 276.891L166.352 278.958L204.17 272.741L203.831 270.674L166.012 276.891Z" fill="#EE4D47"/>
<path opacity="0.2" d="M169.386 297.823L169.726 299.89L250.349 286.637L250.009 284.57L169.386 297.823Z" fill="#EE4D47"/>
<path opacity="0.2" d="M170.236 303.055L170.575 305.122L251.198 291.868L250.859 289.801L170.236 303.055Z" fill="#EE4D47"/>
<path opacity="0.2" d="M211.419 301.487L211.759 303.554L252.131 296.918L251.791 294.851L211.419 301.487Z" fill="#EE4D47"/>
<path opacity="0.2" d="M171.205 308.126L171.545 310.193L209.364 303.976L209.024 301.91L171.205 308.126Z" fill="#EE4D47"/>
<path opacity="0.2" d="M110.468 170.371L109.484 170.507L109.62 171.491L112.65 189.94L112.786 190.924L113.77 190.788L133.564 187.525L134.549 187.389L134.412 186.405L131.383 167.956L131.247 166.972L130.262 167.108L110.468 170.371ZM132.34 185.813L114.363 188.716L111.573 172.115L129.431 169.244L132.34 185.813Z" fill="#EE4D47"/>
<path opacity="0.2" d="M116.105 205.215L115.121 205.351L115.376 206.303L118.406 224.753L118.542 225.737L119.526 225.601L139.32 222.338L140.305 222.201L140.169 221.217L137.139 202.768L137.003 201.784L136.018 201.92L116.105 205.215ZM137.977 220.657L120.119 223.528L117.329 206.928L135.187 204.056L137.977 220.657Z" fill="#EE4D47"/>
<path opacity="0.2" d="M121.597 238.567L120.612 238.703L120.748 239.687L123.778 258.137L123.914 259.121L124.899 258.984L144.693 255.721L145.677 255.585L145.541 254.601L142.511 236.152L142.375 235.168L141.391 235.304L121.597 238.567ZM143.468 254.009L125.611 256.88L122.821 240.28L140.679 237.408L143.468 254.009Z" fill="#EE4D47"/>
<path opacity="0.2" d="M127.153 272.157L126.168 272.293L126.304 273.277L129.366 291.846L129.502 292.83L130.486 292.694L150.281 289.431L151.265 289.295L151.129 288.311L148.099 269.861L147.963 268.877L146.979 269.013L127.153 272.157ZM149.024 287.599L131.166 290.471L128.377 273.87L146.235 270.998L149.024 287.599Z" fill="#EE4D47"/>
<path opacity="0.2" d="M132.508 304.525L131.524 304.661L131.66 305.645L134.69 324.095L134.826 325.079L135.81 324.943L155.605 321.68L156.589 321.544L156.453 320.56L153.423 302.11L153.287 301.126L152.303 301.262L132.508 304.525ZM154.349 319.848L136.491 322.72L133.701 306.119L151.559 303.247L154.349 319.848Z" fill="#EE4D47"/>
<path d="M122.783 179.189L112.456 173.027L111.291 174.87L122.642 181.523L123.548 182.045L124.071 181.14L138.04 158.518L136.229 157.473L122.783 179.189Z" fill="#EE4D47"/>
<path d="M128.675 214.985L118.348 208.823L117.183 210.666L128.535 217.319L129.408 217.723L129.963 216.936L143.9 194.195L142.089 193.15L128.675 214.985Z" fill="#F58A6B"/>
<path d="M139.954 283.269L129.508 277.139L128.462 278.95L139.695 285.635L140.6 286.157L141.123 285.252L155.212 262.598L153.369 261.434L139.954 283.269Z" fill="#F58A6B"/>
<path fill-rule="evenodd" clip-rule="evenodd" d="M110.553 389.24C109.481 389.527 108.871 390.583 109.158 391.654C109.445 392.725 110.502 393.335 111.573 393.048C112.644 392.761 113.255 391.705 112.968 390.634C112.681 389.562 111.624 388.953 110.553 389.24Z" fill="#FAFBFC"/>
<path d="M139.943 380.839C140.688 380.504 141.02 379.629 140.686 378.884C140.351 378.139 139.476 377.807 138.73 378.142C137.985 378.476 137.653 379.352 137.988 380.097C138.322 380.841 139.198 381.174 139.943 380.839Z" fill="#FAFBFC"/>
<path d="M180.728 368.778C181.319 368.619 181.67 368.011 181.512 367.42C181.353 366.828 180.745 366.477 180.154 366.636C179.562 366.794 179.211 367.402 179.369 367.994C179.528 368.585 180.136 368.937 180.728 368.778Z" fill="#FAFBFC"/>
<path fill-rule="evenodd" clip-rule="evenodd" d="M201.942 364.624C200.99 364.879 200.467 365.785 200.722 366.737C200.977 367.689 201.883 368.212 202.835 367.957C203.788 367.701 204.31 366.796 204.055 365.844C203.832 365.011 202.895 364.369 201.942 364.624Z" fill="#FAFBFC"/>
<path fill-rule="evenodd" clip-rule="evenodd" d="M234.195 357.385C233.838 357.481 233.664 357.783 233.759 358.14C233.855 358.497 234.157 358.671 234.514 358.576C234.871 358.48 235.045 358.178 234.95 357.821C234.973 357.432 234.552 357.29 234.195 357.385Z" fill="#FAFBFC"/>
<path fill-rule="evenodd" clip-rule="evenodd" d="M300.821 335.579C300.226 335.738 299.996 336.31 300.124 336.786C300.283 337.381 300.855 337.611 301.331 337.483C301.926 337.324 302.156 336.752 302.028 336.276C302.02 335.768 301.416 335.419 300.821 335.579Z" fill="#FAFBFC"/>
<path d="M411.926 144.052C411.926 133.007 402.972 124.052 391.926 124.052H316.447C305.401 124.052 296.447 133.007 296.447 144.052V154.455C296.447 165.501 305.401 174.455 316.447 174.455H411.926V144.052Z" fill="white"/>
<circle r="3.82804" transform="matrix(-1 0 0 1 385.768 149.573)" fill="#F4A984"/>
<circle r="3.82804" transform="matrix(-1 0 0 1 369.817 149.573)" fill="#F4A984"/>
<circle r="3.82804" transform="matrix(-1 0 0 1 353.867 149.573)" fill="#F4A984"/>
<circle r="3.82804" transform="matrix(-1 0 0 1 337.917 149.573)" fill="#F4A984"/>
<circle r="3.82804" transform="matrix(-1 0 0 1 321.967 149.573)" fill="#F4A984"/>
<path d="M262.447 311.553C218.847 311.553 240.947 248.552 257.447 217.052C266.281 210.386 287.947 196.953 303.947 196.553C319.947 196.153 329.947 216.053 332.947 226.053C331.114 226.219 329.247 233.853 336.447 263.053C343.647 292.253 340.114 307.553 337.447 311.553H262.447Z" fill="#402B2B"/>
<path d="M308.047 296.593C303.934 289.404 307.019 278.278 307.019 278.278L294.338 280.846L281.658 278.278C281.658 278.278 283.2 283.584 282.686 289.404C287.142 294.539 297.423 304.125 308.047 296.593Z" fill="url(#paint2_linear_11_2)"/>
<path d="M306.246 282.286C303.471 283.958 299.963 285.505 296.038 286.692C291.114 288.181 286.423 288.832 282.74 288.692C283.078 283.159 281.659 278.278 281.659 278.278L294.339 280.846L307.02 278.278C307.02 278.278 306.572 279.891 306.246 282.286Z" fill="url(#paint3_linear_11_2)" style="mix-blend-mode:multiply"/>
<path d="M263.324 306.692C270.692 313.197 285.257 327.404 294.51 327.404C303.763 327.404 320.213 313.881 327.582 307.377C323.983 306.008 313.016 301.728 310.446 299.503C309.589 298.647 308.733 297.62 308.219 296.593C297.595 304.125 287.313 294.539 282.858 289.233C282.515 292.999 281.487 296.764 278.574 299.332C275.661 301.728 266.751 305.323 263.324 306.692Z" fill="url(#paint4_linear_11_2)"/>
<path d="M329.223 239.423C328.024 237.198 326.139 236.855 324.939 237.198C324.939 237.198 321.512 226.243 319.113 218.198C311.06 214.432 303.52 211.18 294.438 210.495V210.324C293.067 210.324 290.669 210.324 289.298 210.324C283.643 210.495 277.988 210.666 272.505 211.693C271.134 212.036 269.763 212.378 268.392 212.378C266.679 221.45 263.766 237.369 262.566 237.198H262.395C262.224 237.198 262.224 237.198 262.052 237.026C260.853 236.684 259.482 237.026 258.283 239.08C256.226 242.846 258.283 250.378 261.024 252.603C262.395 253.63 263.595 254.486 264.451 254.999C265.822 261.846 268.221 268.35 271.82 272.287C281.244 282.386 289.983 284.612 292.382 284.954C292.553 284.954 292.896 284.954 293.067 284.954C293.067 284.954 293.239 284.954 293.41 284.954C295.124 284.783 304.548 283.071 314.658 272.116C318.257 268.35 320.827 265.612 322.369 255.513C323.397 254.999 324.425 254.143 326.139 252.774C329.223 250.72 331.279 243.189 329.223 239.423Z" fill="url(#paint5_linear_11_2)"/>
<path d="M294.184 249.053C294.184 249.053 294.315 252.909 293.272 254.178C292.229 255.447 290.251 256.676 290.087 257.624C289.896 258.392 290.725 259.74 292.17 260.071C293.615 260.401 293.85 260.919 293.85 260.919C293.85 260.919 291.182 261.7 289.514 259.928C287.846 258.155 289.108 256.298 290.33 255.186C291.552 254.075 292.102 253.62 292.623 252.986C293.296 252.328 294.184 249.053 294.184 249.053Z" fill="#D87C60"/>
<path d="M304.513 266.053H283.812C283.136 266.053 282.66 266.708 282.931 267.327C284.39 270.662 287.972 275.553 293.947 275.553C299.899 275.553 303.731 270.701 305.377 267.368C305.685 266.744 305.209 266.053 304.513 266.053Z" fill="#D87C60"/>
<path fill-rule="evenodd" clip-rule="evenodd" d="M304.423 269.053H283.814C283.463 268.455 283.169 267.87 282.931 267.327C282.66 266.708 283.136 266.053 283.812 266.053H304.513C305.209 266.053 305.685 266.744 305.377 267.368C305.114 267.899 304.796 268.47 304.423 269.053Z" fill="white"/>
<path d="M314.045 198C339.577 201.252 333.579 232.405 328.61 237.882L324.947 244.053C323.114 240.886 319.347 232.153 318.947 222.553C315.114 225.053 303.647 230.053 288.447 230.053C269.447 230.053 264.239 233.198 262.447 242.053C257.992 232.125 254.928 212.036 265.894 200.739C280.973 184.991 303.763 181.225 314.045 198Z" fill="#402B2B"/>
<path d="M262.466 241.991L263.323 249.351C263.323 249.351 260.753 247.981 260.239 244.558C260.067 242.504 260.924 241.135 262.466 241.991Z" fill="#ED8A40"/>
<path d="M324.667 241.991L323.81 249.351C323.81 249.351 326.38 247.981 326.894 244.558C327.066 242.504 326.38 241.135 324.667 241.991Z" fill="#ED8A40"/>
<path d="M311.133 250.313C311.133 251.854 309.933 253.223 308.22 253.223C306.677 253.223 305.307 252.025 305.307 250.313C305.307 248.773 306.506 247.404 308.22 247.404C309.933 247.404 311.133 248.773 311.133 250.313Z" fill="#402B2B"/>
<path d="M280.631 253.223C282.24 253.223 283.544 251.921 283.544 250.313C283.544 248.706 282.24 247.404 280.631 247.404C279.022 247.404 277.718 248.706 277.718 250.313C277.718 251.921 279.022 253.223 280.631 253.223Z" fill="#402B2B"/>
<path d="M272.988 244.914C274.237 243.551 277.893 240.826 282.526 240.826" stroke="#402B2B" stroke-width="2"/>
<path d="M306.028 240.943C307.874 240.863 312.386 241.521 315.662 244.797" stroke="#402B2B" stroke-width="2"/>
<path d="M355.512 345.548C356.197 327.062 350.543 316.107 341.975 311.485C333.407 306.864 313.187 301.044 312.502 300.873L294.167 315.422L276.689 300.873C276.004 301.044 255.27 306.864 246.873 311.485C238.306 316.107 232.651 327.062 233.336 345.548C233.85 360.44 232.822 383.89 232.994 401.007H356.026C356.026 383.89 354.998 360.44 355.512 345.548Z" fill="url(#paint6_linear_11_2)"/>
<path d="M304.277 307.206L299.479 304.981L293.995 315.08L288.512 304.981L283.543 307.206L290.74 318.846V401.007H297.422V318.332L304.277 307.206Z" fill="#EE4D47" fill-opacity="0.29" style="mix-blend-mode:multiply"/>
<path d="M282.686 289.233C282.515 294.197 289.541 307.035 289.541 307.035L277.375 318.845L273.433 301.729C273.433 301.729 277.375 291.287 282.686 289.233Z" fill="white"/>
<path d="M305.99 289.233C306.161 294.197 298.279 307.206 298.279 307.206L311.131 318.845L315.072 301.557C315.072 301.557 311.302 291.287 305.99 289.233Z" fill="white"/>
<path d="M296.054 321.755C296.054 322.782 295.197 323.638 294.169 323.638C293.141 323.638 292.284 322.782 292.284 321.755C292.284 320.728 293.141 319.873 294.169 319.873C295.197 319.873 296.054 320.728 296.054 321.755Z" fill="white"/>
<path d="M296.054 339.215C296.054 340.242 295.197 341.097 294.169 341.097C293.14 341.097 292.284 340.242 292.284 339.215C292.284 338.188 293.14 337.332 294.169 337.332C295.197 337.332 296.054 338.016 296.054 339.215Z" fill="white"/>
<path d="M296.054 356.332C296.054 357.359 295.197 358.214 294.169 358.214C293.14 358.214 292.284 357.359 292.284 356.332C292.284 355.305 293.14 354.449 294.169 354.449C295.197 354.449 296.054 355.305 296.054 356.332Z" fill="white"/>
<path d="M296.054 375.332C296.054 376.359 295.197 377.214 294.169 377.214C293.14 377.214 292.284 376.359 292.284 375.332C292.284 374.305 293.14 373.449 294.169 373.449C295.197 373.449 296.054 374.305 296.054 375.332Z" fill="white"/>
<path d="M236.078 316.62C236.078 316.62 217.915 365.403 216.544 373.448C215.344 381.493 225.626 400.151 230.424 400.836C237.449 401.863 243.104 399.809 250.129 387.827C256.983 375.845 255.784 324.665 255.784 324.665L236.078 316.62Z" fill="url(#paint7_linear_11_2)"/>
<path d="M255.956 319.873C255.956 319.873 254.756 378.755 252.186 386.115C248.073 397.926 237.621 401.178 237.621 401.178H249.273C249.273 401.178 258.354 395.187 259.211 377.214C259.725 366.431 257.84 332.026 256.812 320.557C256.47 317.476 255.956 319.873 255.956 319.873Z" fill="#EE4D47" fill-opacity="0.29" style="mix-blend-mode:multiply"/>
<path d="M259.982 314.316L240.281 306.365L236.173 316.522L255.874 324.473L259.982 314.316Z" fill="white"/>
<path d="M334.436 328.26C334.436 328.26 327.41 361.638 326.896 375.331C326.382 389.025 326.896 400.836 326.896 400.836L331.865 401.178C331.865 401.178 333.065 341.269 334.436 328.26Z" fill="#EE4D47" fill-opacity="0.29" style="mix-blend-mode:multiply"/>
<path d="M274.803 282.044C265.379 282.044 262.295 277.423 260.41 270.405C259.553 266.639 259.21 256.54 259.21 256.198H261.952C261.952 256.369 262.295 266.468 263.151 269.891C264.865 276.567 267.435 279.99 276.688 279.305L276.86 282.044C276.174 282.044 275.489 282.044 274.803 282.044Z" fill="white"/>
<path d="M294.167 188.928C286.628 188.243 269.321 188.757 261.438 203.82C261.438 203.82 263.495 207.414 265.894 205.018C274.461 197.315 286.456 197.144 293.824 197.144C301.364 197.144 313.873 197.144 322.269 205.018C324.839 207.243 326.724 203.82 326.724 203.82C319.013 188.757 301.707 188.243 294.167 188.928Z" fill="white"/>
<path d="M334.778 240.621C334.778 240.621 334.435 230.18 334.264 227.27C333.921 221.621 333.064 212.378 331.179 207.414C325.011 190.468 304.962 187.216 294.51 187.216C283.886 187.216 263.495 190.468 257.326 207.243C255.612 212.036 254.755 220.594 254.241 226.414C254.07 229.837 253.899 240.45 253.899 240.45H256.812C256.812 240.45 256.812 229.837 257.154 226.414C257.497 221.963 258.354 215.459 260.581 209.297C265.722 194.748 284.742 193.207 293.996 193.207C303.42 193.207 322.783 194.748 327.924 209.297C330.323 216.144 331.179 223.162 331.522 227.612C331.693 230.522 331.865 240.621 331.865 240.621H334.778Z" fill="url(#paint8_linear_11_2)"/>
<path d="M257.498 238.567H253.728V254.657H257.498V238.567Z" fill="white"/>
<path d="M264.181 257.738H259.897C257.84 257.738 256.127 256.026 256.127 253.972V239.252C256.127 237.198 257.84 235.486 259.897 235.486H264.181C264.695 235.486 265.037 235.828 265.037 236.342V256.711C265.037 257.224 264.695 257.738 264.181 257.738Z" fill="url(#paint9_linear_11_2)"/>
<path d="M252.185 256.026H252.014C251.157 256.026 250.472 255.342 250.472 254.486V238.396C250.472 237.54 251.157 236.855 252.014 236.855H252.185C253.042 236.855 253.727 237.54 253.727 238.396V254.486C253.727 255.342 253.042 256.026 252.185 256.026Z" fill="url(#paint10_linear_11_2)"/>
<path d="M330.624 254.935H334.394V238.845H330.624V254.935Z" fill="white"/>
<path d="M324.154 258.08H328.438C330.494 258.08 332.208 256.368 332.208 254.314V239.594C332.208 237.54 330.494 235.828 328.438 235.828H324.154C323.64 235.828 323.298 236.17 323.298 236.684V257.053C323.126 257.567 323.64 258.08 324.154 258.08Z" fill="url(#paint11_linear_11_2)"/>
<path d="M335.978 256.368H336.149C337.006 256.368 337.692 255.684 337.692 254.828V238.738C337.692 237.882 337.006 237.198 336.149 237.198H335.978C335.121 237.198 334.436 237.882 334.436 238.738V254.828C334.436 255.684 335.121 256.368 335.978 256.368Z" fill="url(#paint12_linear_11_2)"/>
<path d="M284.914 280.332C284.914 282.044 282.858 283.585 280.117 283.585C277.546 283.585 275.319 282.215 275.319 280.332C275.319 278.449 277.375 277.08 280.117 277.08C282.687 277.08 284.914 278.449 284.914 280.332Z" fill="url(#paint13_linear_11_2)"/>
<path fill-rule="evenodd" clip-rule="evenodd" d="M249.102 269.378L249.102 269.377C250.696 267.885 252.522 266.855 254.275 265.986C257.428 263.946 261.104 261.626 262.467 260.99C265.209 259.621 266.923 262.017 262.981 265.441C262.126 266.184 261.134 266.975 260.104 267.759C262.244 266.939 264.138 266.235 265.037 265.954C267.95 265.099 269.321 267.837 264.694 270.405C262.813 271.449 260.449 272.578 258.307 273.551L259.041 275.882C259.041 275.882 261.097 273.999 261.782 273.486C266.066 270.576 268.294 272.972 266.409 275.54C264.353 278.107 261.268 285.468 262.296 290.603C262.982 294.026 262.468 298.819 261.611 302.585C260.754 306.179 255.442 316.792 255.442 316.792L241.734 311.999C241.734 311.999 244.818 308.747 244.304 300.873C244.152 298.292 243.124 295.576 242.101 292.876C240.818 289.486 239.543 286.12 240.02 283.071C240.877 278.279 247.902 270.577 249.102 269.378L249.102 269.378Z" fill="url(#paint14_linear_11_2)"/>
<path opacity="0.3" d="M261.439 289.918C261.781 285.639 261.439 284.783 261.096 282.729C260.753 280.332 261.267 277.251 260.239 275.026C259.04 272.63 257.155 271.26 253.899 271.945C249.615 272.972 247.902 275.197 247.902 275.197C247.902 275.197 251.329 273.828 253.042 273.314C255.613 272.63 258.183 272.801 259.211 275.882C259.725 277.765 260.068 280.332 260.411 282.215C260.582 283.585 261.61 289.575 260.753 289.747C259.896 289.747 258.012 289.233 257.155 286.152C256.983 286.837 256.812 291.458 256.298 291.458C253.214 291.116 252.871 288.72 252.7 286.152C252.7 284.954 252.528 283.242 252.186 281.017C250.986 282.9 248.073 284.612 246.874 285.467C248.244 286.666 250.815 289.575 251.843 290.774C253.728 292.999 255.441 296.422 255.784 300.017C260.411 295.566 257.84 290.945 257.669 289.404C258.868 290.774 261.267 291.801 261.439 289.918Z" fill="#EB5046"/>
<path d="M455.756 289.918C455.756 287.35 453.7 285.468 450.958 285.468H324.327C321.757 285.468 319.529 287.522 319.529 289.918V368.656H455.584V289.918H455.756Z" fill="url(#paint15_linear_11_2)"/>
<path d="M324.498 383.547H451.129C453.699 383.547 455.927 381.493 455.927 379.097V368.827H319.872V379.097C319.7 381.493 321.928 383.547 324.498 383.547Z" fill="#CA3F3A"/>
<path d="M407.606 381.665H373.677V397.754H407.606V381.665Z" fill="#CA3F3A"/>
<path d="M411.717 381.665H377.789V397.754H411.717V381.665Z" fill="url(#paint16_linear_11_2)"/>
<path d="M406.062 396.214H364.081V400.836H406.062V396.214Z" fill="url(#paint17_linear_11_2)"/>
<path d="M419.771 396.214H377.789V400.836H419.771V396.214Z" fill="url(#paint18_linear_11_2)"/>
<path d="M462.782 289.918C462.782 287.35 460.725 285.468 457.984 285.468H331.524C328.954 285.468 326.726 287.522 326.726 289.918V368.656H462.782V289.918Z" fill="url(#paint19_linear_11_2)"/>
<path d="M331.524 383.547H458.154C460.725 383.547 462.952 381.493 462.952 379.097V368.827H326.897V379.097C326.726 381.493 328.782 383.547 331.524 383.547Z" fill="url(#paint20_linear_11_2)"/>
<path opacity="0.2" d="M407.091 319.873C407.091 326.719 401.608 332.197 394.754 332.197C387.9 332.197 382.416 326.719 382.416 319.873C382.416 313.026 387.9 307.548 394.754 307.548C401.608 307.548 407.091 313.026 407.091 319.873Z" fill="white"/>
<path d="M292.111 396.214H262.81V400.665H292.111V396.214Z" fill="url(#paint21_linear_11_2)"/>
<path d="M340.776 396.214H279.26V400.665H340.776V396.214Z" fill="url(#paint22_linear_11_2)"/>
<g clip-path="url(#clip0_11_2)">
<path d="M531.447 367.023H451.447V400.954H531.447V367.023Z" fill="#FCDDD4"/>
<path fill-rule="evenodd" clip-rule="evenodd" d="M491.891 358.178V358.255C492.526 356.486 493.797 353.67 495.935 349.47C500.177 341.428 504.912 335.25 504.912 335.25C504.912 335.25 502.84 342.115 498.598 350.156C494.848 357.353 492.794 360.257 491.891 360.697V361.107C492.979 359.678 495.371 357.227 499.585 353.392C506.589 347.116 513.494 342.605 513.494 342.605C513.494 342.605 509.055 348.391 502.051 354.765C497.943 358.452 495.222 360.662 493.523 361.795C495.253 360.726 497.943 359.259 501.854 357.315C510.535 353 518.426 350.352 518.426 350.352C518.426 350.352 512.31 354.765 503.63 359.08C497.018 362.441 493.44 363.868 491.891 364.141V364.435C493.283 363.665 496.844 362.429 503.629 360.551C513.198 357.903 521.583 356.727 521.583 356.727C521.583 356.727 514.283 359.963 504.714 362.61C501.595 363.474 499.105 364.108 497.155 364.55C499.13 364.221 501.682 363.867 504.912 363.493C515.072 362.218 523.555 362.316 523.555 362.316C523.555 362.316 515.565 364.474 505.405 365.651C497.224 366.677 493.2 366.813 491.891 366.521V366.729H490.905V366.589C490.723 366.642 490.468 366.685 490.115 366.729H487.255C485.084 366.631 481.829 366.435 477.292 365.847C467.131 364.572 459.141 362.512 459.141 362.512C459.141 362.512 467.624 362.414 477.785 363.689C480.838 364.043 483.285 364.37 485.212 364.67C483.313 364.233 480.928 363.622 477.982 362.807C468.315 360.159 461.114 356.923 461.114 356.923C461.114 356.923 469.499 358.099 479.067 360.747C486.021 362.671 489.588 363.922 490.905 364.688V364.342C489.413 364.092 485.824 362.635 479.068 359.276C470.387 354.961 464.271 350.548 464.271 350.548C464.271 350.548 472.162 353.196 480.843 357.511C484.51 359.334 487.103 360.736 488.838 361.786C487.109 360.6 484.464 358.436 480.646 354.961C473.642 348.587 469.203 342.801 469.203 342.801C469.203 342.801 476.108 347.214 483.112 353.588C486.122 356.328 488.203 358.362 489.543 359.821C488.392 358.332 486.605 355.39 483.999 350.45C479.758 342.409 477.686 335.544 477.686 335.544C477.686 335.544 482.52 341.722 486.663 349.764C489.053 354.403 490.36 357.378 490.905 359.102V358.18C490.375 356.963 490.017 353.446 490.017 346.43C490.017 337.407 491.398 330.052 491.398 330.052C491.398 330.052 492.779 337.407 492.779 346.43C492.779 353.442 492.421 356.959 491.891 358.178ZM490.905 361.05C490.759 361.039 490.567 360.929 490.325 360.707C490.553 360.977 490.745 361.219 490.905 361.436V361.05ZM490.905 362.911C490.664 362.848 490.352 362.712 489.962 362.494C490.34 362.745 490.652 362.968 490.905 363.165V362.911ZM491.891 362.893C492.162 362.686 492.496 362.453 492.897 362.192C492.483 362.438 492.151 362.599 491.891 362.684V362.893ZM490.905 365.571C490.587 365.592 490.138 365.57 489.543 365.498C490.174 365.659 490.62 365.809 490.905 365.948V365.571ZM491.891 365.791C492.261 365.621 492.849 365.432 493.692 365.228C492.89 365.348 492.298 365.395 491.891 365.38V365.791Z" fill="#F37753"/>
<path d="M486.071 366.729H467.625C470.485 366.533 473.938 366.435 477.588 366.435C481.139 366.435 483.999 366.533 486.071 366.729Z" fill="#F37753"/>
<path d="M496.626 366.729H515.072C512.211 366.533 508.759 366.337 505.109 366.435C501.459 366.533 498.697 366.631 496.626 366.729Z" fill="#F37753"/>
</g>
<path d="M364.447 205.053C364.447 194.007 373.402 185.052 384.447 185.052H497.066C508.112 185.052 517.066 194.007 517.066 205.052V231.665C517.066 242.711 508.112 251.665 497.066 251.665H364.447V205.053Z" fill="#F69477"/>
<circle opacity="0.5" cx="399.019" cy="218.78" r="5.05919" fill="white"/>
<circle opacity="0.5" cx="420.099" cy="218.78" r="5.05919" fill="white"/>
<circle opacity="0.5" cx="441.179" cy="218.78" r="5.05919" fill="white"/>
<circle opacity="0.5" cx="462.259" cy="218.78" r="5.05919" fill="white"/>
<circle opacity="0.5" cx="483.339" cy="218.78" r="5.05919" fill="white"/>
<defs>
<linearGradient id="paint0_linear_11_2" x1="252.021" y1="67.7226" x2="143.514" y2="197.037" gradientUnits="userSpaceOnUse">
<stop stop-color="#F37753"/>
<stop offset="1" stop-color="white" stop-opacity="0"/>
</linearGradient>
<linearGradient id="paint1_linear_11_2" x1="160.968" y1="50.0354" x2="208.574" y2="376.013" gradientUnits="userSpaceOnUse">
<stop stop-color="#F7A58D"/>
<stop offset="1" stop-color="#F58A6B"/>
</linearGradient>
<linearGradient id="paint2_linear_11_2" x1="309.235" y1="288.549" x2="306.181" y2="254.763" gradientUnits="userSpaceOnUse">
<stop stop-color="#FFB3B6"/>
<stop offset="1" stop-color="#FFC8C1"/>
</linearGradient>
<linearGradient id="paint3_linear_11_2" x1="281.828" y1="284.59" x2="310.562" y2="294.938" gradientUnits="userSpaceOnUse">
<stop stop-color="#FFB3B6" stop-opacity="0.31"/>
<stop offset="1" stop-color="#FFC8C1"/>
</linearGradient>
<linearGradient id="paint4_linear_11_2" x1="334.811" y1="342.461" x2="328.682" y2="279.26" gradientUnits="userSpaceOnUse">
<stop stop-color="#FFB3B6"/>
<stop offset="1" stop-color="white"/>
</linearGradient>
<linearGradient id="paint5_linear_11_2" x1="333.32" y1="275.909" x2="327.436" y2="225.28" gradientUnits="userSpaceOnUse">
<stop stop-color="#FFB3B6"/>
<stop offset="1" stop-color="#FFC8C1"/>
</linearGradient>
<linearGradient id="paint6_linear_11_2" x1="294.5" y1="277.694" x2="294.5" y2="403.749" gradientUnits="userSpaceOnUse">
<stop stop-color="#F4A984"/>
<stop offset="1" stop-color="#EE4D47"/>
</linearGradient>
<linearGradient id="paint7_linear_11_2" x1="236.156" y1="297.073" x2="236.156" y2="403.379" gradientUnits="userSpaceOnUse">
<stop stop-color="#F4A984"/>
<stop offset="1" stop-color="#EE4D47"/>
</linearGradient>
<linearGradient id="paint8_linear_11_2" x1="294.338" y1="174.854" x2="294.338" y2="242.083" gradientUnits="userSpaceOnUse">
<stop stop-color="#F4A984"/>
<stop offset="1" stop-color="#EE4D47"/>
</linearGradient>
<linearGradient id="paint9_linear_11_2" x1="260.582" y1="230.335" x2="260.582" y2="258.347" gradientUnits="userSpaceOnUse">
<stop stop-color="#F4A984"/>
<stop offset="1" stop-color="#EE4D47"/>
</linearGradient>
<linearGradient id="paint10_linear_11_2" x1="252.1" y1="232.418" x2="252.1" y2="256.551" gradientUnits="userSpaceOnUse">
<stop stop-color="#F4A984"/>
<stop offset="1" stop-color="#EE4D47"/>
</linearGradient>
<linearGradient id="paint11_linear_11_2" x1="327.736" y1="230.677" x2="327.736" y2="258.689" gradientUnits="userSpaceOnUse">
<stop stop-color="#F4A984"/>
<stop offset="1" stop-color="#EE4D47"/>
</linearGradient>
<linearGradient id="paint12_linear_11_2" x1="336.064" y1="232.76" x2="336.064" y2="256.893" gradientUnits="userSpaceOnUse">
<stop stop-color="#F4A984"/>
<stop offset="1" stop-color="#EE4D47"/>
</linearGradient>
<linearGradient id="paint13_linear_11_2" x1="280.117" y1="275.574" x2="280.117" y2="283.763" gradientUnits="userSpaceOnUse">
<stop stop-color="#F4A984"/>
<stop offset="1" stop-color="#EE4D47"/>
</linearGradient>
<linearGradient id="paint14_linear_11_2" x1="253.447" y1="314.553" x2="275.947" y2="230.553" gradientUnits="userSpaceOnUse">
<stop stop-color="#FFB3B6"/>
<stop offset="0.239165" stop-color="#FFC5C7"/>
<stop offset="1" stop-color="white"/>
</linearGradient>
<linearGradient id="paint15_linear_11_2" x1="368.552" y1="536.316" x2="368.552" y2="51.2436" gradientUnits="userSpaceOnUse">
<stop stop-color="#FFEDBA"/>
<stop offset="0.423008" stop-color="#F16D5E"/>
<stop offset="0.651925" stop-color="#EE4D47"/>
</linearGradient>
<linearGradient id="paint16_linear_11_2" x1="389.998" y1="430.183" x2="389.998" y2="336.362" gradientUnits="userSpaceOnUse">
<stop stop-color="#FFEDBA"/>
<stop offset="1" stop-color="#EE4D47"/>
</linearGradient>
<linearGradient id="paint17_linear_11_2" x1="379.188" y1="418.325" x2="379.188" y2="391.825" gradientUnits="userSpaceOnUse">
<stop stop-color="#FFEDBA"/>
<stop offset="1" stop-color="#EE4D47"/>
</linearGradient>
<linearGradient id="paint18_linear_11_2" x1="392.896" y1="410.15" x2="392.896" y2="383.202" gradientUnits="userSpaceOnUse">
<stop stop-color="#FFEDBA"/>
<stop offset="1" stop-color="#EE4D47"/>
</linearGradient>
<linearGradient id="paint19_linear_11_2" x1="375.687" y1="423.094" x2="375.687" y2="206.46" gradientUnits="userSpaceOnUse">
<stop stop-color="#FFEDBA"/>
<stop offset="1" stop-color="#EE4D47"/>
</linearGradient>
<linearGradient id="paint20_linear_11_2" x1="375.852" y1="413.216" x2="375.852" y2="327.38" gradientUnits="userSpaceOnUse">
<stop stop-color="#FFEDBA"/>
<stop offset="1" stop-color="#EE4D47"/>
</linearGradient>
<linearGradient id="paint21_linear_11_2" x1="273.354" y1="417.506" x2="273.354" y2="391.987" gradientUnits="userSpaceOnUse">
<stop stop-color="#FFEDBA"/>
<stop offset="1" stop-color="#EE4D47"/>
</linearGradient>
<linearGradient id="paint22_linear_11_2" x1="301.397" y1="396.185" x2="301.397" y2="376.77" gradientUnits="userSpaceOnUse">
<stop stop-color="#FFEDBA"/>
<stop offset="1" stop-color="#EE4D47"/>
</linearGradient>
<clipPath id="clip0_11_2">
<rect width="80" height="71" fill="white" transform="translate(451.447 330.052)"/>
</clipPath>
</defs>
</svg>
