<svg width="1285" height="686" viewBox="0 0 1285 786" fill="none" xmlns="http://www.w3.org/2000/svg">
<mask id="mask0_482_2" style="mask-type:alpha" maskUnits="userSpaceOnUse" x="0" y="-14" width="1285" height="800">
<path d="M1285 -14H0V786H1185C1240.23 786 1285 741.228 1285 686V-14Z" fill="url(#paint0_linear_482_2)"/>
</mask>
<g mask="url(#mask0_482_2)">
<path d="M1325.57 330.525H1314.74C1312.5 330.525 1310.68 332.343 1310.68 334.586V578.864C1310.68 581.948 1308.18 584.448 1305.09 584.448C1302.01 584.448 1299.51 581.948 1299.51 578.864V422.796C1299.51 417.273 1295.03 412.796 1289.51 412.796H1279.05C1273.53 412.796 1269.05 417.273 1269.05 422.796V432.59C1269.05 438.113 1264.57 442.59 1259.05 442.59H1193.07C1188.86 442.59 1185.45 446 1185.45 450.207V454.441C1185.45 456.31 1183.94 457.825 1182.07 457.825C1180.2 457.825 1178.68 459.34 1178.68 461.21V515.553C1178.68 520.133 1174.97 523.845 1170.39 523.845C1165.81 523.845 1162.1 527.558 1162.1 532.137V568.354C1162.1 573.877 1157.62 578.354 1152.1 578.354H1151.11C1145.59 578.354 1141.11 582.831 1141.11 588.354V641.329C1141.11 643.385 1139.45 645.052 1137.39 645.052C1135.33 645.052 1133.67 643.385 1133.67 641.329V334.248C1133.67 332.566 1132.3 331.202 1130.62 331.202C1128.94 331.202 1127.57 329.838 1127.57 328.156V301.237C1127.57 298.34 1125.23 295.991 1122.33 295.991C1119.43 295.991 1117.08 293.642 1117.08 290.745V264.673C1117.08 262.71 1115.49 261.119 1113.53 261.119C1111.57 261.119 1109.98 259.528 1109.98 257.565V236.247C1109.98 230.724 1105.5 226.247 1099.98 226.247H1074.62C1069.1 226.247 1064.62 230.724 1064.62 236.247V257.565C1064.62 259.528 1063.03 261.119 1061.07 261.119C1059.11 261.119 1057.51 262.71 1057.51 264.673V290.745C1057.51 293.642 1055.17 295.991 1052.27 295.991C1049.37 295.991 1047.02 298.34 1047.02 301.237V328.325C1047.02 329.727 1045.89 330.863 1044.48 330.863C1043.08 330.863 1041.95 332 1041.95 333.402V542.638C1041.95 545.909 1039.29 548.561 1036.02 548.561C1032.75 548.561 1030.1 551.212 1030.1 554.484V637.775C1030.1 641.794 1026.84 645.052 1022.82 645.052H1016.22C1015.85 645.052 1015.55 644.748 1015.55 644.374C1015.55 644 1015.24 643.697 1014.87 643.697H1012.67C1012.02 643.697 1011.49 643.167 1011.49 642.512C1011.49 641.858 1012.02 641.327 1012.67 641.327H1013.85C1014.79 641.327 1015.55 640.569 1015.55 639.635C1015.55 638.7 1014.79 637.942 1013.85 637.942H1012.84C1012.09 637.942 1011.49 637.335 1011.49 636.587C1011.49 635.84 1012.09 635.233 1012.84 635.233H1013.85C1014.79 635.233 1015.55 634.475 1015.55 633.54C1015.55 632.605 1014.79 631.848 1013.85 631.848H1012.67C1012.02 631.848 1011.49 631.317 1011.49 630.663C1011.49 630.008 1012.02 629.478 1012.67 629.478H1013.85C1014.79 629.478 1015.55 628.72 1015.55 627.785C1015.55 626.85 1014.79 626.092 1013.85 626.092H1012.67C1012.02 626.092 1011.49 625.561 1011.49 624.907C1011.49 624.253 1012.02 623.722 1012.67 623.722H1013.85C1014.79 623.722 1015.55 622.964 1015.55 622.029C1015.55 621.094 1014.79 620.336 1013.85 620.336H1012.67C1012.02 620.336 1011.49 619.806 1011.49 619.151C1011.49 618.497 1012.02 617.966 1012.67 617.966H1013.85C1014.79 617.966 1015.55 617.208 1015.55 616.274C1015.55 615.339 1014.79 614.581 1013.85 614.581H1012.67C1012.02 614.581 1011.49 614.05 1011.49 613.396C1011.49 612.741 1012.02 612.211 1012.67 612.211H1013.85C1014.79 612.211 1015.55 611.453 1015.55 610.518C1015.55 609.583 1014.79 608.825 1013.85 608.825H1012.67C1012.02 608.825 1011.49 608.295 1011.49 607.64C1011.49 606.986 1012.02 606.455 1012.67 606.455H1013.85C1014.79 606.455 1015.55 605.697 1015.55 604.762C1015.55 603.827 1014.79 603.07 1013.85 603.07H1012.67C1012.02 603.07 1011.49 602.539 1011.49 601.885C1011.49 601.23 1012.02 600.7 1012.67 600.7H1013.85C1014.79 600.7 1015.55 599.942 1015.55 599.007C1015.55 598.072 1014.79 597.314 1013.85 597.314H1012.67C1012.02 597.314 1011.49 596.783 1011.49 596.129C1011.49 595.475 1012.02 594.944 1012.67 594.944H1013.85C1014.79 594.944 1015.55 594.186 1015.55 593.251C1015.55 592.316 1014.79 591.558 1013.85 591.558H1012.67C1012.02 591.558 1011.49 591.028 1011.49 590.373C1011.49 589.719 1012.02 589.188 1012.67 589.188H1013.85C1014.79 589.188 1015.55 588.43 1015.55 587.496C1015.55 586.561 1014.79 585.803 1013.85 585.803H1013.52C1012.39 585.803 1011.49 584.893 1011.49 583.772V583.094C1011.49 581.972 1012.39 581.063 1013.52 581.063H1013.85C1014.79 581.063 1015.55 580.305 1015.55 579.37C1015.55 578.435 1014.79 577.677 1013.85 577.677H1012.67C1012.02 577.677 1011.49 577.147 1011.49 576.492C1011.49 575.838 1012.02 575.307 1012.67 575.307H1013.85C1014.79 575.307 1015.55 574.549 1015.55 573.614C1015.55 572.679 1014.79 571.922 1013.85 571.922H1012.67C1012.02 571.922 1011.49 571.391 1011.49 570.737C1011.49 570.082 1012.02 569.552 1012.67 569.552H1013.85C1014.79 569.552 1015.55 568.794 1015.55 567.859C1015.55 566.924 1014.79 566.166 1013.85 566.166H1012.67C1012.02 566.166 1011.49 565.635 1011.49 564.981C1011.49 564.327 1012.02 563.796 1012.67 563.796H1013.85C1014.79 563.796 1015.55 563.038 1015.55 562.103C1015.55 561.168 1014.79 560.41 1013.85 560.41H1012.67C1012.02 560.41 1011.49 559.88 1011.49 559.225C1011.49 558.571 1012.02 558.04 1012.67 558.04H1013.85C1014.79 558.04 1015.55 557.282 1015.55 556.348C1015.55 555.413 1014.79 554.655 1013.85 554.655H1012.67C1012.02 554.655 1011.49 554.124 1011.49 553.47C1011.49 552.815 1012.02 552.285 1012.67 552.285H1013.85C1014.79 552.285 1015.55 551.527 1015.55 550.592C1015.55 549.657 1014.79 548.899 1013.85 548.899H1012.67C1012.02 548.899 1011.49 548.369 1011.49 547.714C1011.49 547.06 1012.02 546.529 1012.67 546.529H1013.85C1014.79 546.529 1015.55 545.771 1015.55 544.836C1015.55 543.901 1014.79 543.144 1013.85 543.144H1012.67C1012.02 543.144 1011.49 542.613 1011.49 541.959C1011.49 541.304 1012.02 540.774 1012.67 540.774H1013.85C1014.79 540.774 1015.55 540.016 1015.55 539.081C1015.55 538.146 1014.79 537.388 1013.85 537.388H1012.67C1012.02 537.388 1011.49 536.857 1011.49 536.203C1011.49 535.548 1012.02 535.018 1012.67 535.018H1013.85C1014.79 535.018 1015.55 534.26 1015.55 533.325C1015.55 532.39 1014.79 531.632 1013.85 531.632H1012.67C1012.02 531.632 1011.49 531.102 1011.49 530.447C1011.49 529.793 1012.02 529.262 1012.67 529.262H1013.85C1014.79 529.262 1015.55 528.504 1015.55 527.57C1015.55 526.635 1014.79 525.877 1013.85 525.877H1012.67C1012.02 525.877 1011.49 525.346 1011.49 524.692C1011.49 524.037 1012.02 523.507 1012.67 523.507H1013.85C1014.79 523.507 1015.55 522.749 1015.55 521.814C1015.55 520.879 1014.79 520.121 1013.85 520.121H1012.67C1012.02 520.121 1011.49 519.591 1011.49 518.936C1011.49 518.282 1012.02 517.751 1012.67 517.751H1013.85C1014.79 517.751 1015.55 516.993 1015.55 516.058C1015.55 515.123 1014.79 514.366 1013.85 514.366H1012.67C1012.02 514.366 1011.49 513.835 1011.49 513.181C1011.49 512.526 1012.02 511.996 1012.67 511.996H1013.85C1014.79 511.996 1015.55 511.238 1015.55 510.303C1015.55 509.368 1014.79 508.61 1013.85 508.61H1013.52C1012.39 508.61 1011.49 507.701 1011.49 506.579V505.224C1011.49 504.102 1012.39 503.193 1013.52 503.193H1013.85C1014.79 503.193 1015.55 502.435 1015.55 501.5C1015.55 500.565 1014.79 499.807 1013.85 499.807H1012.67C1012.02 499.807 1011.49 499.277 1011.49 498.622C1011.49 497.968 1012.02 497.437 1012.67 497.437H1013.85C1014.79 497.437 1015.55 496.679 1015.55 495.744C1015.55 494.81 1014.79 494.052 1013.85 494.052H1012.67C1012.02 494.052 1011.49 493.521 1011.49 492.867C1011.49 492.212 1012.02 491.682 1012.67 491.682H1013.85C1014.79 491.682 1015.55 490.924 1015.55 489.989C1015.55 489.054 1014.79 488.296 1013.85 488.296H1012.67C1012.02 488.296 1011.49 487.765 1011.49 487.111C1011.49 486.457 1012.02 485.926 1012.67 485.926H1013.85C1014.79 485.926 1015.55 485.168 1015.55 484.233C1015.55 483.298 1014.79 482.54 1013.85 482.54H1013.52C1012.39 482.54 1011.49 481.631 1011.49 480.51V478.308C1011.49 477.467 1010.8 476.785 1009.96 476.785C1009.12 476.785 1008.44 476.103 1008.44 475.262V473.061C1008.44 471.004 1006.77 469.336 1004.72 469.336H1004.38C1002.13 469.336 1000.32 467.518 1000.32 465.275V454.438C1000.32 452.756 998.953 451.392 997.271 451.392C995.588 451.392 994.224 450.029 994.224 448.346V436.761C994.224 432.06 990.95 427.994 986.357 426.991L975.609 424.646C973.034 424.051 971.209 421.758 971.209 419.114V387.572C971.209 386.918 970.679 386.388 970.025 386.388C969.371 386.388 968.84 386.918 968.84 387.572V419.473C968.84 421.429 967.024 422.879 965.117 422.445C963.21 422.012 961.394 423.461 961.394 425.417V448.854C961.394 450.256 960.258 451.392 958.856 451.392C957.454 451.392 956.318 452.529 956.318 453.931V465.275C956.318 467.518 954.499 469.336 952.256 469.336H951.411C949.635 469.336 948.195 470.776 948.195 472.553V474.246C948.195 475.087 947.513 475.769 946.672 475.769C945.831 475.769 945.149 476.451 945.149 477.292V478.647C945.149 480.236 943.86 481.525 942.271 481.525H912.503C906.981 481.525 902.503 486.002 902.503 491.525V509.105C902.503 514.628 898.026 519.105 892.503 519.105H867.83C866.588 519.105 865.357 519.337 864.2 519.788L833.797 531.632C832.775 532.041 832.105 533.031 832.105 534.132V545.853C832.105 547.348 833.318 548.561 834.813 548.561H835.489C836.611 548.561 837.52 549.47 837.52 550.592C837.52 551.714 836.611 552.623 835.489 552.623H834.137C833.015 552.623 832.105 553.533 832.105 554.655C832.105 555.777 833.015 556.686 834.137 556.686H835.489C836.611 556.686 837.52 557.596 837.52 558.718C837.52 559.839 836.611 560.749 835.489 560.749H834.137C833.015 560.749 832.105 561.658 832.105 562.78C832.105 563.902 833.015 564.812 834.137 564.812H835.489C836.611 564.812 837.52 565.721 837.52 566.843C837.52 567.965 836.611 568.874 835.489 568.874H834.137C833.015 568.874 832.105 569.784 832.105 570.906C832.105 572.028 833.015 572.937 834.137 572.937H835.489C836.611 572.937 837.52 573.847 837.52 574.969C837.52 576.091 836.611 577 835.489 577H834.137C833.015 577 832.105 577.91 832.105 579.031C832.105 580.153 833.015 581.063 834.137 581.063H835.997C836.838 581.063 837.52 581.745 837.52 582.586C837.52 583.428 836.838 584.11 835.997 584.11H805.219C801.036 584.11 797.295 581.507 795.842 577.585L787.79 555.855C786.389 552.076 781.041 552.082 779.65 555.865C777.954 560.477 770.828 559.154 770.838 554.24C770.845 550.879 770.845 547.519 770.845 544.159C770.845 539.419 770.845 534.679 770.845 529.939C770.845 516.397 770.845 502.854 770.507 489.312C770.507 483.556 770.168 477.462 770.168 471.706C769.83 459.179 769.491 446.652 768.814 433.787C768.476 427.693 768.476 421.599 768.137 415.504C767.461 403.655 767.122 392.143 766.445 380.294C766.445 378.939 766.107 377.585 766.107 376.231C765.43 365.735 764.753 355.578 764.076 345.083C762.722 326.123 761.03 307.164 759.338 288.204C759.214 286.475 759.046 284.701 758.865 282.915C758.337 277.695 753.919 273.646 748.672 273.646H685.252C680.398 273.646 676.078 277.256 676.078 282.11C675.74 286.173 675.401 290.235 675.063 294.298C674.724 297.684 674.386 301.408 674.047 304.794C673.371 311.226 673.032 317.659 672.355 324.092C672.017 327.139 672.017 329.848 671.678 332.895C671.34 338.312 671.001 343.729 670.325 349.146C669.986 351.516 669.986 353.886 669.986 355.917C669.648 363.027 668.971 370.137 668.632 376.908C668.632 379.278 668.294 381.648 668.294 384.018C667.955 391.466 667.617 398.576 667.278 406.025C667.278 407.717 666.94 409.072 666.94 410.765C666.602 417.536 666.263 424.646 665.925 431.417C665.925 432.771 665.925 434.126 665.925 435.48C665.586 443.267 665.248 451.054 665.248 458.841C665.248 460.534 665.248 461.888 665.248 463.581C664.909 471.706 664.909 479.832 664.571 487.619V488.635C664.571 496.76 664.233 504.886 664.233 512.673C664.233 513.688 664.233 514.704 664.233 515.72C664.233 523.845 664.233 531.971 664.233 540.096C664.233 541.112 664.233 542.466 664.233 543.482C664.233 545.894 664.233 548.307 664.233 550.763C664.233 554.782 660.975 558.04 656.956 558.04C652.937 558.04 649.679 561.298 649.679 565.317V646.578C649.679 651.344 645.815 655.208 641.048 655.208H633.264C632.797 655.208 632.418 654.83 632.418 654.362C632.418 653.895 632.797 653.516 633.264 653.516H633.941C634.782 653.516 635.464 652.834 635.464 651.993V651.315C635.464 650.473 634.782 649.792 633.941 649.792C633.1 649.792 632.418 649.11 632.418 648.268V646.913C632.418 646.072 633.1 645.39 633.941 645.39C634.782 645.39 635.464 644.708 635.464 643.867V643.189C635.464 642.348 634.782 641.666 633.941 641.666C633.1 641.666 632.418 640.984 632.418 640.143V638.449C632.418 637.608 633.1 636.926 633.941 636.926C634.782 636.926 635.464 636.244 635.464 635.403V634.725C635.464 633.884 634.782 633.202 633.941 633.202C633.1 633.202 632.418 632.52 632.418 631.679V629.985C632.418 629.144 633.1 628.462 633.941 628.462C634.782 628.462 635.464 627.78 635.464 626.939V626.261C635.464 625.42 634.782 624.738 633.941 624.738C633.1 624.738 632.418 624.056 632.418 623.215V621.521C632.418 620.68 633.1 619.998 633.941 619.998C634.782 619.998 635.464 619.316 635.464 618.475V617.797C635.464 616.955 634.782 616.274 633.941 616.274C633.1 616.274 632.418 615.592 632.418 614.75V613.057C632.418 612.216 633.1 611.534 633.941 611.534C634.782 611.534 635.464 610.852 635.464 610.011V609.332C635.464 608.491 634.782 607.809 633.941 607.809C633.1 607.809 632.418 607.128 632.418 606.286V604.593C632.418 603.751 633.1 603.07 633.941 603.07C634.782 603.07 635.464 602.388 635.464 601.546V600.868C635.464 600.027 634.782 599.345 633.941 599.345C633.1 599.345 632.418 598.663 632.418 597.822V596.128C632.418 595.287 633.1 594.605 633.941 594.605C634.782 594.605 635.464 593.923 635.464 593.082V592.404C635.464 591.563 634.782 590.881 633.941 590.881C633.1 590.881 632.418 590.199 632.418 589.358V587.664C632.418 586.823 633.1 586.141 633.941 586.141C634.782 586.141 635.464 585.459 635.464 584.618V583.94C635.464 583.099 634.782 582.417 633.941 582.417C633.1 582.417 632.418 581.735 632.418 580.894V579.2C632.418 578.359 633.1 577.677 633.941 577.677C634.782 577.677 635.464 576.995 635.464 576.154V575.476C635.464 574.635 634.782 573.953 633.941 573.953C633.1 573.953 632.418 573.271 632.418 572.43V570.736C632.418 569.895 633.1 569.213 633.941 569.213C634.782 569.213 635.464 568.531 635.464 567.69V565.658C635.464 564.816 634.782 564.135 633.941 564.135C633.1 564.135 632.418 563.453 632.418 562.611V560.918C632.418 560.077 633.1 559.395 633.941 559.395C634.782 559.395 635.464 558.713 635.464 557.872V557.194C635.464 556.352 634.782 555.67 633.941 555.67C633.1 555.67 632.418 554.989 632.418 554.147V552.115C632.418 551.274 633.1 550.592 633.941 550.592C634.782 550.592 635.464 549.91 635.464 549.069V548.391C635.464 547.55 634.782 546.868 633.941 546.868C633.1 546.868 632.418 546.186 632.418 545.345V543.651C632.418 542.81 633.1 542.128 633.941 542.128C634.782 542.128 635.464 541.446 635.464 540.605V539.927C635.464 539.086 634.782 538.404 633.941 538.404C633.1 538.404 632.418 537.722 632.418 536.881V535.187C632.418 534.346 633.1 533.664 633.941 533.664C634.782 533.664 635.464 532.982 635.464 532.141V531.463C635.464 530.621 634.782 529.939 633.941 529.939C633.1 529.939 632.418 529.258 632.418 528.416V526.723C632.418 525.882 633.1 525.2 633.941 525.2C634.782 525.2 635.464 524.518 635.464 523.677V522.998C635.464 522.157 634.782 521.475 633.941 521.475C633.1 521.475 632.418 520.793 632.418 519.952V518.259C632.418 517.417 633.1 516.735 633.941 516.735C634.782 516.735 635.464 516.054 635.464 515.212V514.534C635.464 513.693 634.782 513.011 633.941 513.011C633.1 513.011 632.418 512.329 632.418 511.488V509.794C632.418 508.953 633.1 508.271 633.941 508.271C634.782 508.271 635.464 507.589 635.464 506.748V506.07C635.464 505.229 634.782 504.547 633.941 504.547C633.1 504.547 632.418 503.865 632.418 503.024V501.33C632.418 500.489 633.1 499.807 633.941 499.807C634.782 499.807 635.464 499.125 635.464 498.284V497.606C635.464 496.765 634.782 496.083 633.941 496.083C633.1 496.083 632.418 495.401 632.418 494.56V492.866C632.418 492.025 633.1 491.343 633.941 491.343C634.782 491.343 635.464 490.661 635.464 489.82V487.788C635.464 486.947 634.782 486.265 633.941 486.265C633.1 486.265 632.418 485.583 632.418 484.742V483.048C632.418 482.207 633.1 481.525 633.941 481.525C634.782 481.525 635.464 480.843 635.464 480.002V479.324C635.464 478.482 634.782 477.8 633.941 477.8C633.1 477.8 632.418 477.119 632.418 476.277V474.584C632.418 473.742 633.1 473.061 633.941 473.061C634.782 473.061 635.464 472.379 635.464 471.537V470.859C635.464 470.018 634.782 469.336 633.941 469.336C633.1 469.336 632.418 468.654 632.418 467.813V466.12C632.418 465.278 633.1 464.596 633.941 464.596C634.782 464.596 635.464 463.915 635.464 463.073V462.395C635.464 461.554 634.782 460.872 633.941 460.872C633.1 460.872 632.418 460.19 632.418 459.349V453.931C632.418 453.09 633.1 452.408 633.941 452.408C634.782 452.408 635.464 451.726 635.464 450.885V449.869C635.464 448.466 634.327 447.33 632.925 447.33H628.019C626.71 447.33 625.649 446.269 625.649 444.96V444.402C625.649 443.401 626.46 442.59 627.461 442.59C628.951 442.59 629.805 440.893 628.917 439.697L616.776 423.337C615.331 421.392 613.051 420.244 610.628 420.244H610.421C606.307 420.244 602.972 416.91 602.972 412.796C602.972 412.048 602.295 411.174 602.295 410.426V390.958C602.295 390.304 601.765 389.774 601.111 389.774C600.457 389.774 599.926 390.304 599.926 390.958V410.479C599.926 411.198 599.25 412.077 599.25 412.796C599.25 416.91 595.915 420.244 591.801 420.244H591.594C589.171 420.244 586.891 421.392 585.446 423.338L572.634 440.601C572.024 441.423 572.611 442.59 573.635 442.59C574.323 442.59 574.881 443.148 574.881 443.836V444.96C574.881 446.269 573.82 447.33 572.511 447.33H567.605C566.203 447.33 565.066 448.466 565.066 449.869V450.547C565.066 451.575 565.899 452.408 566.927 452.408C567.955 452.408 568.789 453.242 568.789 454.27V459.011C568.789 460.039 567.955 460.872 566.927 460.872C565.899 460.872 565.066 461.706 565.066 462.734C565.066 463.762 565.899 464.596 566.927 464.596C567.955 464.596 568.789 465.43 568.789 466.458V467.475C568.789 468.503 567.955 469.336 566.927 469.336C565.899 469.336 565.066 470.17 565.066 471.198C565.066 472.227 565.899 473.061 566.927 473.061C567.955 473.061 568.789 473.894 568.789 474.922V475.939C568.789 476.967 567.955 477.8 566.927 477.8C565.899 477.8 565.066 478.634 565.066 479.663C565.066 480.691 565.899 481.525 566.927 481.525C567.955 481.525 568.789 482.358 568.789 483.386V484.403C568.789 485.431 567.955 486.265 566.927 486.265C565.899 486.265 565.066 487.099 565.066 488.127C565.066 489.155 565.899 489.989 566.927 489.989C567.955 489.989 568.789 490.822 568.789 491.85V492.867C568.789 493.895 567.955 494.729 566.927 494.729C565.899 494.729 565.066 495.563 565.066 496.591C565.066 497.619 565.899 498.453 566.927 498.453C567.955 498.453 568.789 499.286 568.789 500.314V501.331C568.789 502.359 567.955 503.193 566.927 503.193C565.899 503.193 565.066 504.027 565.066 505.055C565.066 506.083 565.899 506.917 566.927 506.917C567.955 506.917 568.789 507.75 568.789 508.779V509.795C568.789 510.824 567.955 511.657 566.927 511.657C565.899 511.657 565.066 512.491 565.066 513.519C565.066 514.547 565.899 515.381 566.927 515.381C567.955 515.381 568.789 516.215 568.789 517.243V518.26C568.789 519.288 567.955 520.121 566.927 520.121C565.899 520.121 565.066 520.955 565.066 521.983C565.066 523.011 565.899 523.845 566.927 523.845C567.955 523.845 568.789 524.679 568.789 525.707V526.724C568.789 527.752 567.955 528.585 566.927 528.585C565.899 528.585 565.066 529.419 565.066 530.447C565.066 531.475 565.899 532.309 566.927 532.309C567.955 532.309 568.789 533.143 568.789 534.171V535.188C568.789 536.216 567.955 537.049 566.927 537.049C565.899 537.049 565.066 537.883 565.066 538.911C565.066 539.94 565.899 540.774 566.927 540.774C567.955 540.774 568.789 541.607 568.789 542.635V543.652C568.789 544.68 567.955 545.513 566.927 545.513C565.899 545.513 565.066 546.348 565.066 547.376C565.066 548.404 565.899 549.238 566.927 549.238C567.955 549.238 568.789 550.071 568.789 551.099V552.116C568.789 553.144 567.955 553.978 566.927 553.978C565.899 553.978 565.066 554.812 565.066 555.84C565.066 556.868 565.899 557.702 566.927 557.702C567.955 557.702 568.789 558.535 568.789 559.563V560.58C568.789 561.608 567.955 562.442 566.927 562.442C565.899 562.442 565.066 563.276 565.066 564.304C565.066 565.332 565.899 566.166 566.927 566.166C567.955 566.166 568.789 566.999 568.789 568.027V569.044C568.789 570.072 567.955 570.906 566.927 570.906C565.899 570.906 565.066 571.74 565.066 572.768C565.066 573.796 565.899 574.63 566.927 574.63H568.281C568.561 574.63 568.789 574.857 568.789 575.138C568.789 575.418 568.561 575.646 568.281 575.646H550.514C548.083 575.646 546.112 573.675 546.112 571.244V567.52V562.78V559.056V554.316V550.592V545.852V542.128V537.388V533.664V528.924V525.2V520.46V516.735V511.996V508.271V503.531V499.807V495.067V491.343V486.603V482.879V478.139V474.415V470.013V466.289V461.549V457.825V453.085V449.361V444.621V440.897V436.496V432.771V428.031V424.307V419.567V415.843V411.103V407.379V402.639V398.915V394.175V390.451V385.711V381.987V377.247V373.522V368.783V365.058V360.318V356.594V351.854V348.13V343.39V339.666V334.926L545.939 327.635C545.839 323.468 543.165 319.799 539.228 318.429L529.149 314.922C525.858 313.777 522.421 316.22 522.421 319.705V321.251C522.421 323.194 520.846 324.769 518.903 324.769C516.932 324.769 515.346 323.15 515.385 321.18L515.829 299.22C515.923 294.558 512.782 290.449 508.257 289.317L486.87 283.969C480.861 282.466 474.945 286.732 474.473 292.908L471.314 334.249L470.976 338.989L470.637 342.713L470.299 347.453L469.96 351.177L469.622 355.917L469.283 359.641L468.945 364.381L468.607 368.105L468.268 372.845L467.93 376.57L467.591 381.309L467.253 385.034L466.914 389.774L466.576 393.498L466.237 398.238L465.899 401.962L465.56 406.702L465.222 410.426L464.884 415.166L464.545 418.89L464.207 423.63L463.868 427.354L463.849 427.618C463.646 430.465 462.235 433.09 459.973 434.831L458.228 436.173C456.001 437.887 454.607 440.465 454.391 443.267L454.053 446.991L453.715 451.731L453.376 455.455L453.038 460.195L452.699 463.919L452.361 468.659L452.022 472.383L451.684 476.785C451.684 477.72 450.926 478.478 449.991 478.478H422.085C416.562 478.478 412.085 482.955 412.085 488.478V527.063C412.085 529.961 409.736 532.309 406.839 532.309C403.942 532.309 401.593 534.658 401.593 537.555V641.668C401.593 645.594 398.411 648.776 394.485 648.776C390.56 648.776 387.378 645.594 387.378 641.668V225.569C387.378 224.073 386.166 222.861 384.67 222.861C383.175 222.861 381.963 221.649 381.963 220.153V183.092C381.963 177.569 377.485 173.092 371.963 173.092H314.457C308.934 173.092 304.457 177.569 304.457 183.092V220.492C304.457 221.987 303.245 223.2 301.749 223.2C300.254 223.2 299.042 224.412 299.042 225.907V406.196C299.042 408.906 296.844 411.103 294.134 411.103H290.242C289.681 411.103 289.226 411.558 289.226 412.119V412.458C289.226 412.832 288.923 413.135 288.549 413.135C288.176 413.135 287.873 413.438 287.873 413.811V417.536C287.873 417.91 288.176 418.213 288.549 418.213C288.923 418.213 289.226 418.516 289.226 418.89V419.229C289.226 419.603 288.923 419.906 288.549 419.906C288.176 419.906 287.873 420.209 287.873 420.583V424.307C287.873 424.681 288.176 424.984 288.549 424.984C288.923 424.984 289.226 425.287 289.226 425.661V426C289.226 426.374 288.923 426.677 288.549 426.677C288.176 426.677 287.873 426.98 287.873 427.354V431.079C287.873 431.453 288.176 431.756 288.549 431.756C288.923 431.756 289.226 432.059 289.226 432.432V432.772C289.226 433.145 288.923 433.448 288.549 433.448C288.176 433.448 287.873 433.751 287.873 434.125V437.85C287.873 438.224 288.176 438.527 288.549 438.527C288.923 438.527 289.226 438.83 289.226 439.204V439.543C289.226 439.917 288.923 440.22 288.549 440.22C288.176 440.22 287.873 440.523 287.873 440.897V444.621C287.873 444.995 288.176 445.298 288.549 445.298C288.923 445.298 289.226 445.601 289.226 445.975V446.314C289.226 446.688 288.923 446.991 288.549 446.991C288.176 446.991 287.873 447.294 287.873 447.668V451.393C287.873 451.766 288.176 452.07 288.549 452.07C288.923 452.07 289.226 452.373 289.226 452.746V453.085C289.226 453.459 288.923 453.762 288.549 453.762C288.176 453.762 287.873 454.065 287.873 454.439V458.164C287.873 458.538 288.176 458.841 288.549 458.841C288.923 458.841 289.226 459.144 289.226 459.518V459.857C289.226 460.231 288.923 460.534 288.549 460.534C288.176 460.534 287.873 460.837 287.873 461.211V464.935C287.873 465.309 288.176 465.612 288.549 465.612C288.923 465.612 289.226 465.915 289.226 466.289V466.628C289.226 467.002 288.923 467.305 288.549 467.305C288.176 467.305 287.873 467.608 287.873 467.982V471.707C287.873 472.08 288.176 472.383 288.549 472.383C288.923 472.383 289.226 472.686 289.226 473.06V473.399C289.226 473.773 288.923 474.076 288.549 474.076C288.176 474.076 287.873 474.379 287.873 474.753V478.478C287.873 478.852 288.176 479.155 288.549 479.155C288.923 479.155 289.226 479.458 289.226 479.832V480.171C289.226 480.545 288.923 480.848 288.549 480.848C288.176 480.848 287.873 481.151 287.873 481.524V485.249C287.873 485.623 288.176 485.926 288.549 485.926C288.923 485.926 289.226 486.229 289.226 486.603V486.942C289.226 487.316 288.923 487.619 288.549 487.619C288.176 487.619 287.873 487.922 287.873 488.296V492.02C287.873 492.394 288.176 492.697 288.549 492.697C288.923 492.697 289.226 493 289.226 493.374V493.713C289.226 494.087 288.923 494.39 288.549 494.39C288.176 494.39 287.873 494.693 287.873 495.067V498.792C287.873 499.166 288.176 499.469 288.549 499.469C288.923 499.469 289.226 499.772 289.226 500.146V500.485C289.226 500.858 288.923 501.161 288.549 501.161C288.176 501.161 287.873 501.465 287.873 501.838V505.563C287.873 505.937 288.176 506.24 288.549 506.24C288.923 506.24 289.226 506.543 289.226 506.917V507.256C289.226 507.63 288.923 507.933 288.549 507.933C288.176 507.933 287.873 508.236 287.873 508.61V512.334C287.873 512.708 288.176 513.011 288.549 513.011C288.923 513.011 289.226 513.314 289.226 513.688V520.798C289.226 521.172 288.923 521.475 288.549 521.475C288.176 521.475 287.873 521.778 287.873 522.152V525.877C287.873 526.251 288.176 526.554 288.549 526.554C288.923 526.554 289.226 526.857 289.226 527.231V527.57C289.226 527.944 288.923 528.247 288.549 528.247C288.176 528.247 287.873 528.55 287.873 528.924V529.77C287.873 530.612 287.19 531.294 286.349 531.294H275.196C269.673 531.294 265.196 526.817 265.196 521.294V429.906C265.196 424.383 260.719 419.906 255.196 419.906H215.628C210.106 419.906 205.628 424.383 205.628 429.906V483.051C205.628 487.818 201.764 491.682 196.998 491.682H190.399C189.277 491.682 188.367 490.772 188.367 489.65C188.367 488.528 187.458 487.619 186.336 487.619H184.813C182.851 487.619 181.26 486.028 181.26 484.065V356.933V213.042C181.26 211.546 180.047 210.334 178.552 210.334C177.057 210.334 175.844 209.122 175.844 207.626V134C175.844 128.477 171.367 124 165.844 124H92.0929C86.5701 124 82.0929 128.477 82.0929 134V207.627C82.0929 209.122 80.8806 210.334 79.3853 210.334C77.89 210.334 76.6777 211.546 76.6777 213.042V571.247C76.6777 574.798 73.7987 577.677 70.2471 577.677C66.6956 577.677 63.8165 574.798 63.8165 571.247V442.771C63.8165 437.248 59.3394 432.771 53.8165 432.771H51.1401C45.6173 432.771 41.1401 428.294 41.1401 422.771V372.167C41.1401 370.111 39.4733 368.444 37.4172 368.444C35.3611 368.444 33.6942 366.777 33.6942 364.721V349.327C33.6942 343.805 29.217 339.327 23.6942 339.327H-61.9032C-67.426 339.327 -71.9032 343.805 -71.9032 349.327V364.721C-71.9032 366.777 -73.5701 368.444 -75.6262 368.444C-77.6823 368.444 -79.3491 370.111 -79.3491 372.167V592.392C-79.3491 597.915 -83.8263 602.392 -89.3491 602.392H-93.7178C-99.2406 602.392 -103.718 597.915 -103.718 592.392V461.054C-103.718 455.531 -108.195 451.054 -113.718 451.054H-183.408C-188.931 451.054 -193.408 455.531 -193.408 461.054V536.714C-193.408 542.135 -197.802 546.529 -203.223 546.529C-208.644 546.529 -213.038 550.924 -213.038 556.344V633.542C-213.038 636.72 -215.614 639.296 -218.792 639.296C-221.97 639.296 -224.546 636.72 -224.546 633.542V371.83V367.427C-224.546 366.119 -225.606 365.058 -226.915 365.058H-228.268C-228.829 365.058 -229.284 364.604 -229.284 364.043C-229.284 363.482 -228.829 363.027 -228.268 363.027H-226.915C-225.606 363.027 -224.546 361.966 -224.546 360.658V358.625C-224.546 357.316 -225.606 356.256 -226.915 356.256H-228.268C-228.829 356.256 -229.284 355.801 -229.284 355.24C-229.284 354.679 -228.829 354.224 -228.268 354.224H-226.915C-225.606 354.224 -224.546 353.164 -224.546 351.855V349.822C-224.546 348.514 -225.606 347.453 -226.915 347.453H-228.268C-228.829 347.453 -229.284 346.998 -229.284 346.437C-229.284 345.876 -228.829 345.422 -228.268 345.422H-226.915C-225.606 345.422 -224.546 344.361 -224.546 343.052V341.019C-224.546 339.711 -225.606 338.65 -226.915 338.65H-228.607C-228.981 338.65 -229.284 338.347 -229.284 337.973C-229.284 337.599 -228.981 337.296 -228.607 337.296H-226.746C-225.344 337.296 -224.207 336.159 -224.207 334.758V333.063C-224.207 331.661 -225.344 330.525 -226.746 330.525H-228.268C-228.829 330.525 -229.284 330.07 -229.284 329.509C-229.284 328.948 -228.829 328.493 -228.268 328.493H-226.746C-225.344 328.493 -224.207 327.357 -224.207 325.955V324.26C-224.207 322.858 -225.344 321.722 -226.746 321.722H-228.268C-228.829 321.722 -229.284 321.267 -229.284 320.706C-229.284 320.145 -228.829 319.691 -228.268 319.691H-226.746C-225.344 319.691 -224.207 318.554 -224.207 317.152V315.458C-224.207 314.056 -225.344 312.919 -226.746 312.919H-228.268C-228.829 312.919 -229.284 312.465 -229.284 311.904C-229.284 311.343 -228.829 310.888 -228.268 310.888H-226.746C-225.344 310.888 -224.207 309.751 -224.207 308.349V290.407C-224.207 287.12 -225.858 284.081 -228.324 281.908C-238.463 272.978 -252.68 253.9 -252.976 227.601V226.924V226.076C-252.976 224.488 -254.264 223.2 -255.853 223.2H-256.867C-257.896 223.2 -258.729 224.033 -258.729 225.062C-258.729 226.09 -259.563 226.924 -260.591 226.924H-262.791C-265.034 226.924 -266.852 225.105 -266.852 222.862V169.536C-266.852 168.695 -267.534 168.013 -268.375 168.013C-269.216 168.013 -269.898 168.695 -269.898 169.536V226.416C-269.898 226.884 -270.277 227.262 -270.745 227.262C-271.212 227.262 -271.591 226.884 -271.591 226.416V225.4C-271.591 224.372 -272.424 223.538 -273.453 223.538H-275.821C-276.849 223.538 -277.683 224.372 -277.683 225.4C-277.683 226.429 -278.516 227.262 -279.545 227.262H-286.651C-287.68 227.262 -288.513 226.429 -288.513 225.4C-288.513 224.372 -289.347 223.538 -290.375 223.538H-291.559C-293.242 223.538 -294.605 224.902 -294.605 226.584V227.262C-294.605 253.941 -301.965 273.257 -310.531 282.354C-312.823 284.788 -314.574 287.842 -314.574 291.185V304.624C-314.574 304.718 -314.498 304.794 -314.405 304.794C-314.311 304.794 -314.236 304.87 -314.236 304.963V308.519C-314.236 310.201 -312.872 311.565 -311.19 311.565H-309.159C-308.598 311.565 -308.143 312.02 -308.143 312.581C-308.143 313.142 -308.598 313.596 -309.159 313.596H-311.19C-312.872 313.596 -314.236 314.96 -314.236 316.643V317.322C-314.236 319.004 -312.872 320.368 -311.19 320.368H-309.159C-308.598 320.368 -308.143 320.822 -308.143 321.383C-308.143 321.944 -308.598 322.399 -309.159 322.399H-311.359C-313.135 322.399 -314.574 323.839 -314.574 325.614V325.955C-314.574 327.731 -313.135 329.17 -311.359 329.17H-308.821C-308.447 329.17 -308.143 329.474 -308.143 329.848C-308.143 330.222 -308.447 330.525 -308.821 330.525H-311.359C-313.135 330.525 -314.574 331.964 -314.574 333.74V334.081C-314.574 335.856 -313.135 337.296 -311.359 337.296H-309.159C-308.598 337.296 -308.143 337.751 -308.143 338.312C-308.143 338.873 -308.598 339.327 -309.159 339.327H-311.359C-313.135 339.327 -314.574 340.767 -314.574 342.543V342.883C-314.574 344.659 -313.135 346.099 -311.359 346.099H-309.159C-308.598 346.099 -308.143 346.553 -308.143 347.114C-308.143 347.675 -308.598 348.13 -309.159 348.13H-311.359C-313.135 348.13 -314.574 349.57 -314.574 351.345V351.686C-314.574 353.462 -313.135 354.901 -311.359 354.901H-309.159C-308.598 354.901 -308.143 355.356 -308.143 355.917C-308.143 356.478 -308.598 356.933 -309.159 356.933H-311.359C-313.135 356.933 -314.574 358.372 -314.574 360.148V360.489C-314.574 362.264 -313.135 363.704 -311.359 363.704H-309.159C-308.598 363.704 -308.143 364.159 -308.143 364.72C-308.143 365.281 -308.598 365.735 -309.159 365.735H-311.528C-313.397 365.735 -314.913 367.251 -314.913 369.12V502.519C-314.913 507.753 -319.155 511.996 -324.389 511.996C-329.623 511.996 -333.866 516.238 -333.866 521.472V578.864C-333.866 581.761 -336.215 584.11 -339.112 584.11C-342.009 584.11 -344.358 586.459 -344.358 589.356V642.193C-344.358 644.345 -346.787 645.474 -348.938 645.393C-349.069 645.388 -349.161 645.381 -349.291 645.362C-349.413 645.345 -349.536 645.328 -349.66 645.31C-353.607 644.758 -356.542 641.414 -356.542 637.429V515.134C-356.542 511.169 -358.885 507.579 -362.514 505.982L-364.694 505.022C-364.898 504.932 -365.119 504.886 -365.342 504.886H-365.849C-367.251 504.886 -368.388 503.749 -368.388 502.346V500.992C-368.388 500.338 -368.919 499.807 -369.573 499.807C-370.227 499.807 -370.757 500.338 -370.757 500.992C-370.757 501.646 -371.288 502.177 -371.942 502.177H-372.086C-372.66 502.177 -373.127 502.643 -373.127 503.218C-373.127 503.773 -373.562 504.23 -374.116 504.258L-377.979 504.451C-379.022 504.503 -379.896 503.672 -379.896 502.628C-379.896 501.937 -380.286 501.305 -380.904 500.995L-381.819 500.538C-382.334 500.281 -382.904 500.155 -383.48 500.172L-403.279 500.763C-404.394 500.796 -405.28 501.709 -405.28 502.824C-405.28 503.963 -406.203 504.886 -407.341 504.886H-407.649C-408.957 504.886 -410.018 505.946 -410.018 507.255V529.758C-410.018 535.281 -414.495 539.758 -420.018 539.758H-437.586C-443.109 539.758 -447.586 535.281 -447.586 529.758V371.49C-447.586 369.06 -449.556 367.09 -451.986 367.09C-454.416 367.09 -456.386 365.12 -456.386 362.69V333.415C-456.386 327.892 -460.863 323.415 -466.386 323.415H-481.43C-484.608 323.415 -487.185 320.838 -487.185 317.659C-487.185 314.48 -489.762 311.904 -492.941 311.904H-496.828C-501.97 311.904 -506.139 307.735 -506.139 302.593C-506.139 297.451 -510.307 293.283 -515.449 293.283H-572.968C-578.49 293.283 -582.968 297.76 -582.968 303.283V313.415C-582.968 318.938 -587.445 323.415 -592.968 323.415H-611.551C-617.074 323.415 -621.551 327.892 -621.551 333.415V625.233C-621.551 630.756 -626.028 635.233 -631.551 635.233H-632.535C-638.058 635.233 -642.535 639.71 -642.535 645.233V654.873C-642.535 660.294 -646.93 664.688 -652.35 664.688C-657.771 664.688 -662.166 660.294 -662.166 654.873V580.906C-662.166 575.383 -666.643 570.906 -672.166 570.906H-682.626C-688.149 570.906 -692.626 566.429 -692.626 560.906V540.475C-692.626 540.243 -692.757 540.031 -692.965 539.927C-693.172 539.823 -693.303 539.611 -693.303 539.379V535.834C-693.303 534.427 -693.77 533.06 -694.632 531.947L-699.334 525.871C-700.69 524.119 -701.426 521.966 -701.426 519.75V513.77C-701.426 512.851 -701.791 511.969 -702.441 511.318C-703.092 510.668 -703.457 509.786 -703.457 508.867V494.221C-703.457 493.94 -703.684 493.713 -703.965 493.713C-704.245 493.713 -704.472 493.94 -704.472 494.221V509.106C-704.472 509.872 -704.777 510.607 -705.318 511.149C-705.86 511.691 -706.164 512.426 -706.164 513.192V520.694C-706.164 522.745 -706.795 524.747 -707.971 526.427L-712.193 532.46C-712.895 533.464 -713.272 534.659 -713.272 535.885V537.86C-713.272 538.623 -713.653 539.335 -714.287 539.758C-714.922 540.181 -715.303 540.893 -715.303 541.655V542.524C-715.303 543.749 -715.945 544.883 -716.995 545.513L-717.412 545.764C-718.203 546.239 -718.687 547.094 -718.687 548.017C-718.687 548.978 -719.212 549.863 -720.056 550.323L-720.549 550.592C-721.696 551.218 -722.41 552.421 -722.41 553.728V584.757C-722.41 588.586 -725.706 591.583 -729.518 591.22C-732.882 591.22 -735.61 588.492 -735.61 585.128V523.35C-735.61 517.827 -740.087 513.35 -745.61 513.35H-767.24C-772.762 513.35 -777.24 517.827 -777.24 523.35V551.087C-777.24 556.61 -781.717 561.087 -787.24 561.087H-793.639C-799.162 561.087 -803.639 565.565 -803.639 571.087V591.39C-803.639 593.166 -805.079 594.605 -806.854 594.605C-808.63 594.605 -810.07 596.045 -810.07 597.821V635.742C-810.07 637.144 -811.206 638.28 -812.608 638.28C-814.01 638.28 -815.146 637.144 -815.146 635.742V619.658C-815.146 617.789 -816.662 616.274 -818.531 616.274C-820.4 616.274 -821.915 614.758 -821.915 612.889V441.078C-821.915 435.556 -826.393 431.078 -831.915 431.078H-879.791C-922.098 431.078 -956.281 460.872 -956.281 503.193V527.049C-956.281 532.572 -960.759 537.049 -966.281 537.049H-970.158C-982.342 537.049 -992.157 558.04 -992.157 569.552V609.321C-992.157 614.844 -996.635 619.321 -1002.16 619.321H-1018.03C-1023.56 619.321 -1028.03 614.844 -1028.03 609.321V571.765C-1028.03 566.242 -1032.51 561.765 -1038.03 561.765H-1042.06C-1047.59 561.765 -1052.06 566.242 -1052.06 571.765V658.765C-1052.06 661.663 -1054.41 664.011 -1057.31 664.011C-1060.21 664.011 -1062.56 661.663 -1062.56 658.765V610.009C-1062.56 608.42 -1063.84 607.132 -1065.43 607.132C-1067.02 607.132 -1068.31 605.844 -1068.31 604.255V571.765C-1068.31 566.242 -1072.79 561.765 -1078.31 561.765H-1079.63C-1085.15 561.765 -1089.63 557.287 -1089.63 551.765V516.24C-1089.63 510.717 -1094.11 506.24 -1099.63 506.24H-1126C-1131.52 506.24 -1136 510.717 -1136 516.24V718C-1136 723.523 -1131.52 728 -1126 728H1344C1349.52 728 1354 723.523 1354 718V340.525C1354 335.002 1349.52 330.525 1344 330.525H1325.57ZM945.149 522.322C945.149 522.976 944.618 523.507 943.964 523.507H941.764C941.577 523.507 941.426 523.355 941.426 523.168V522.322C941.426 521.667 941.956 521.137 942.611 521.137H943.964C944.618 521.137 945.149 521.667 945.149 522.322ZM945.149 516.566C945.149 517.221 944.618 517.751 943.964 517.751H942.611C941.956 517.751 941.426 517.221 941.426 516.566C941.426 515.912 941.956 515.381 942.611 515.381H943.964C944.618 515.381 945.149 515.912 945.149 516.566ZM945.149 510.472C945.149 511.126 944.618 511.657 943.964 511.657H942.611C941.956 511.657 941.426 511.126 941.426 510.472C941.426 509.818 941.956 509.287 942.611 509.287H943.964C944.618 509.287 945.149 509.818 945.149 510.472ZM945.149 504.378C945.149 505.032 944.618 505.563 943.964 505.563H942.611C941.956 505.563 941.426 505.032 941.426 504.378C941.426 503.723 941.956 503.193 942.611 503.193H943.964C944.618 503.193 945.149 503.723 945.149 504.378ZM945.149 498.284C945.149 498.938 944.618 499.469 943.964 499.469H942.611C941.956 499.469 941.426 498.938 941.426 498.284C941.426 497.629 941.956 497.099 942.611 497.099H943.964C944.618 497.099 945.149 497.629 945.149 498.284ZM945.149 492.189C945.149 492.844 944.618 493.374 943.964 493.374H942.611C941.956 493.374 941.426 492.844 941.426 492.189C941.426 491.535 941.956 491.005 942.611 491.005H943.964C944.618 491.005 945.149 491.535 945.149 492.189ZM945.149 486.434C945.149 487.088 944.618 487.619 943.964 487.619H942.611C941.956 487.619 941.426 487.088 941.426 486.434C941.426 485.779 941.956 485.249 942.611 485.249H943.964C944.618 485.249 945.149 485.779 945.149 486.434Z" fill="url(#paint1_linear_482_2)"/>
<path d="M1098.89 481.501C1040.11 481.501 992.564 582.395 992.564 706.746H1205.33C1205.33 582.269 1157.66 481.501 1098.89 481.501Z" fill="url(#paint2_linear_482_2)"/>
<path d="M1098.89 481.501C1040.11 481.501 992.564 582.395 992.564 706.746H1205.33C1205.33 582.269 1157.66 481.501 1098.89 481.501Z" fill="url(#paint3_linear_482_2)"/>
<mask id="mask1_482_2" style="mask-type:alpha" maskUnits="userSpaceOnUse" x="992" y="481" width="214" height="226">
<path d="M1098.89 481.501C1040.11 481.501 992.564 582.395 992.564 706.746H1205.33C1205.33 582.269 1157.66 481.501 1098.89 481.501Z" fill="url(#paint4_linear_482_2)"/>
</mask>
<g mask="url(#mask1_482_2)">
<path opacity="0.2" d="M1009.25 501.899C1042.94 486.553 1110.97 461.451 1113.6 483.812C1116.89 511.764 922.149 631.793 988.705 606.307C1055.26 580.822 1112.78 510.942 1127.57 535.605C1142.36 560.269 997.743 662.211 1046.22 657.279C1094.7 652.346 1154.68 538.894 1173.58 556.981C1192.48 575.067 1049.51 700.851 1081.56 711.538C1113.6 722.226 1201.52 543.827 1236.85 539.716" stroke="url(#paint5_linear_482_2)" stroke-width="2"/>
</g>
<path opacity="0.3" d="M1191.54 706.746H1205.33C1205.33 582.269 1157.66 481.501 1098.89 481.501C1096.57 481.501 1094.27 481.658 1091.99 481.966C1147.55 489.484 1191.54 587.176 1191.54 706.746Z" fill="#C9D983"/>
<path d="M1216.82 542.573C1173.82 542.573 1139.01 616.406 1139.01 707.403H1294.64C1294.52 616.406 1259.71 542.573 1216.82 542.573Z" fill="url(#paint6_linear_482_2)"/>
<mask id="mask2_482_2" style="mask-type:alpha" maskUnits="userSpaceOnUse" x="1139" y="542" width="156" height="166">
<path d="M1216.82 542.573C1173.82 542.573 1139.01 616.406 1139.01 707.403H1294.64C1294.52 616.406 1259.71 542.573 1216.82 542.573Z" fill="url(#paint7_linear_482_2)"/>
</mask>
<g mask="url(#mask2_482_2)">
<path opacity="0.2" d="M1192.37 505.142C1161.84 554.873 1112.92 644.132 1161.51 603.321C1222.25 552.306 1280.1 568.669 1256 603.321C1231.89 637.972 1161.51 619.684 1168.26 656.26C1173.66 685.521 1252.14 642.143 1290.7 616.796" stroke="url(#paint8_linear_482_2)" stroke-width="2"/>
</g>
<path opacity="0.3" fill-rule="evenodd" clip-rule="evenodd" d="M1278.23 707.403H1294.64C1294.52 616.406 1259.71 542.573 1216.82 542.573C1214.05 542.573 1211.31 542.881 1208.6 543.481C1247.64 552.178 1278.11 622.281 1278.23 707.403Z" fill="#C9D983"/>
<path d="M910.478 462.457C842.311 462.457 787.02 571.247 787.02 705.433H1033.94C1033.81 571.247 978.645 462.457 910.478 462.457Z" fill="url(#paint9_linear_482_2)"/>
<mask id="mask3_482_2" style="mask-type:alpha" maskUnits="userSpaceOnUse" x="787" y="462" width="247" height="244">
<path d="M910.478 462.457C842.311 462.457 787.02 571.247 787.02 705.433H1033.94C1033.81 571.247 978.645 462.457 910.478 462.457Z" fill="url(#paint10_linear_482_2)"/>
</mask>
<g mask="url(#mask3_482_2)">
<path opacity="0.2" d="M797.526 511.485C810.538 496.129 839.768 468.768 852.594 482.169C868.627 498.921 834.471 556.853 856.777 563.833C879.083 570.813 910.45 461.23 937.636 471.7C964.821 482.169 820.529 651.779 870.718 658.061C920.906 664.343 943.909 512.881 965.518 523.35C987.127 533.82 916.724 615.484 941.121 639.215C965.518 662.947 978.066 551.27 997.583 563.833C1017.1 576.397 1003.16 639.215 984.339 681.792" stroke="url(#paint11_linear_482_2)" stroke-width="2"/>
</g>
<path opacity="0.2" d="M1006.35 705.433H1033.94C1033.81 571.247 978.645 462.457 910.478 462.457C905.816 462.457 901.214 462.966 896.687 463.957C958.352 477.456 1006.24 580.423 1006.35 705.433Z" fill="#C9D983"/>
<path d="M1086.41 556.526H1084.12V704.23H1086.41V556.526Z" fill="#0C5E59"/>
<path d="M1101.91 547.174C1097.01 547.174 1092.45 550.709 1089.26 553.903C1091.42 550.823 1094.39 547.06 1096.67 546.375C1100.66 545.121 1103.85 545.691 1103.85 545.691C1103.85 545.691 1100.2 540.558 1094.73 542.954C1092.33 543.98 1090.28 547.402 1088.8 550.709C1089.6 547.63 1090.28 543.98 1089.71 540.672C1088.34 532.232 1079 531.548 1079 531.548C1079 531.548 1084.24 538.848 1085.15 547.402C1085.27 548.542 1085.38 549.683 1085.49 550.709C1084.7 545.805 1082.76 539.874 1077.97 536.68C1066.11 528.81 1058.7 542.611 1058.7 542.611C1058.7 542.611 1065.43 538.391 1074.32 542.84C1081.39 546.375 1084.35 553.903 1085.27 556.983C1084.13 554.701 1079.22 546.033 1071.47 544.778C1059.73 542.84 1056.76 557.667 1056.76 557.667C1056.76 557.667 1063.49 552.306 1071.81 552.648C1078.31 552.991 1082.87 555.614 1085.15 557.667C1083.9 557.325 1081.28 556.754 1078.08 556.64C1067.71 556.526 1065.54 570.441 1065.54 570.441L1085.27 558.351C1084.35 559.948 1082.64 563.37 1081.73 565.651C1080.36 568.845 1081.28 576.03 1081.28 576.03C1081.28 576.03 1084.47 570.555 1085.38 567.02C1086.29 563.598 1086.06 560.062 1085.95 558.351L1099.29 572.837C1099.29 572.837 1102.59 564.054 1092.45 559.834C1091.08 559.264 1089.94 558.807 1089.03 558.465C1091.42 558.807 1094.39 559.834 1097.46 561.773C1103.28 565.537 1107.04 570.783 1107.04 570.783C1107.04 570.783 1110.69 560.176 1101.8 555.842C1098.83 554.473 1095.53 554.587 1092.68 555.272C1094.84 554.017 1097.69 553.105 1101 553.561C1109.09 554.587 1111.37 560.29 1111.37 560.29C1111.37 560.29 1113.65 547.174 1101.91 547.174Z" fill="url(#paint12_linear_482_2)"/>
<path d="M999.418 465.744H995.77V706.975H999.418V465.744Z" fill="#0C5E59"/>
<path d="M1022.99 444.951C1014.09 444.951 1005.69 451.332 999.841 457.203C1003.78 451.588 1009.26 444.823 1013.45 443.419C1020.58 441.122 1026.56 442.27 1026.56 442.27C1026.56 442.27 1019.81 432.826 1009.89 437.293C1005.44 439.207 1001.75 445.461 999.078 451.46C1000.6 445.844 1001.62 439.207 1000.73 433.081C998.315 417.765 981.14 416.488 981.14 416.488C981.14 416.488 990.682 429.762 992.463 445.461C992.717 447.503 992.844 449.545 992.972 451.46C991.445 442.398 987.883 431.549 979.232 425.806C957.733 411.511 944.248 436.782 944.248 436.782C944.248 436.782 956.588 429.124 972.744 437.293C985.466 443.674 990.936 457.586 992.717 463.074C990.554 458.863 981.776 443.164 967.528 440.739C946.156 437.165 940.686 464.351 940.686 464.351C940.686 464.351 952.898 454.523 968.037 455.161C979.741 455.672 988.264 460.522 992.463 464.351C990.3 463.713 985.339 462.564 979.614 462.564C960.659 462.309 956.715 487.708 956.715 487.708L992.717 465.627C991.19 468.563 988.01 474.689 986.229 479.029C983.812 484.9 985.339 497.918 985.339 497.918C985.339 497.918 991.19 487.963 992.844 481.454C994.498 475.2 994.116 468.69 993.862 465.627L1018.29 492.047C1018.29 492.047 1024.27 475.965 1005.95 468.18C1003.53 467.159 1001.37 466.265 999.714 465.627C1004.17 466.265 1009.51 468.052 1014.98 471.626C1025.67 478.518 1032.41 487.963 1032.41 487.963C1032.41 487.963 1039.02 468.435 1022.74 460.777C1017.4 458.224 1011.29 458.607 1006.07 459.756C1010.02 457.459 1015.11 455.799 1021.34 456.565C1036.1 458.352 1040.17 468.946 1040.17 468.946C1040.17 468.946 1044.37 444.823 1022.99 444.951Z" fill="url(#paint13_linear_482_2)"/>
<g clip-path="url(#clip0_482_2)">
<path d="M1315 658.179H1188.92V711.845H1315V658.179Z" fill="#F9F8EF"/>
<path fill-rule="evenodd" clip-rule="evenodd" d="M1252.66 644.19V644.313C1253.66 641.515 1255.66 637.061 1259.03 630.416C1265.72 617.698 1273.18 607.926 1273.18 607.926C1273.18 607.926 1269.91 618.783 1263.23 631.502C1257.32 642.887 1254.08 647.479 1252.66 648.174V648.823C1254.37 646.563 1258.14 642.686 1264.78 636.62C1275.82 626.693 1286.71 619.559 1286.71 619.559C1286.71 619.559 1279.71 628.71 1268.67 638.792C1262.2 644.618 1257.91 648.113 1255.24 649.906C1257.96 648.215 1262.2 645.897 1268.36 642.824C1282.04 636 1294.48 631.812 1294.48 631.812C1294.48 631.812 1284.84 638.792 1271.16 645.616C1260.74 650.932 1255.1 653.189 1252.66 653.62V654.086C1254.85 652.868 1260.46 650.912 1271.16 647.943C1286.24 643.755 1299.45 641.894 1299.45 641.894C1299.45 641.894 1287.95 647.012 1272.87 651.2C1267.95 652.565 1264.03 653.567 1260.95 654.267C1264.07 653.748 1268.09 653.187 1273.18 652.596C1289.19 650.579 1302.56 650.734 1302.56 650.734C1302.56 650.734 1289.97 654.147 1273.96 656.008C1261.06 657.632 1254.72 657.847 1252.66 657.384V657.714H1251.1V657.492C1250.82 657.575 1250.42 657.645 1249.86 657.714H1245.35C1241.93 657.559 1236.8 657.249 1229.65 656.318C1213.63 654.302 1201.04 651.045 1201.04 651.045C1201.04 651.045 1214.41 650.89 1230.43 652.906C1235.24 653.465 1239.09 653.982 1242.13 654.457C1239.14 653.765 1235.38 652.799 1230.74 651.51C1215.5 647.322 1204.15 642.204 1204.15 642.204C1204.15 642.204 1217.37 644.065 1232.45 648.253C1243.4 651.296 1249.03 653.274 1251.1 654.485V653.938C1248.75 653.543 1243.09 651.238 1232.45 645.926C1218.77 639.102 1209.13 632.122 1209.13 632.122C1209.13 632.122 1221.56 636.31 1235.25 643.134C1241.03 646.018 1245.11 648.236 1247.85 649.896C1245.12 648.021 1240.95 644.599 1234.93 639.102C1223.9 629.02 1216.9 619.869 1216.9 619.869C1216.9 619.869 1227.78 626.849 1238.82 636.93C1243.57 641.266 1246.85 644.484 1248.96 646.792C1247.15 644.439 1244.33 639.785 1240.22 631.967C1233.54 619.249 1230.27 608.391 1230.27 608.391C1230.27 608.391 1237.89 618.163 1244.42 630.881C1248.18 638.216 1250.24 642.92 1251.1 645.648V644.191C1250.27 642.265 1249.7 636.703 1249.7 625.608C1249.7 611.338 1251.88 599.706 1251.88 599.706C1251.88 599.706 1254.06 611.338 1254.06 625.608C1254.06 636.7 1253.49 642.263 1252.66 644.19ZM1251.1 648.732C1250.87 648.713 1250.57 648.538 1250.19 648.186C1250.55 648.614 1250.85 648.998 1251.1 649.342V648.732ZM1251.1 651.675C1250.72 651.575 1250.23 651.36 1249.62 651.015C1250.21 651.411 1250.7 651.765 1251.1 652.077V651.675ZM1252.66 651.646C1253.08 651.321 1253.61 650.953 1254.24 650.541C1253.59 650.928 1253.07 651.182 1252.66 651.315V651.646ZM1251.1 655.882C1250.6 655.916 1249.9 655.881 1248.96 655.767C1249.95 656.021 1250.65 656.259 1251.1 656.478V655.882ZM1252.66 656.231C1253.24 655.961 1254.17 655.663 1255.5 655.34C1254.23 655.53 1253.3 655.604 1252.66 655.58V656.231ZM1243.48 657.714H1214.41C1218.92 657.404 1224.36 657.249 1230.11 657.249C1235.71 657.249 1240.22 657.404 1243.48 657.714ZM1260.12 657.714H1289.19C1284.68 657.404 1279.24 657.094 1273.49 657.249C1267.74 657.404 1263.38 657.559 1260.12 657.714Z" fill="url(#paint14_linear_482_2)"/>
</g>
<path d="M921.06 678.595C918.78 668.102 915.018 658.179 910.001 649.054C909.317 647.8 908.519 646.431 907.721 645.176C901.907 635.482 894.724 626.813 886.402 619.285C885.376 618.259 884.236 617.346 883.096 616.434C874.203 609.02 864.056 602.975 853.112 598.641C851.744 598.071 850.376 597.615 849.007 597.158C838.063 593.28 826.206 591.113 814.007 590.885C813.323 590.885 812.525 590.885 811.841 590.885C811.157 590.885 810.359 590.885 809.675 590.885C797.362 591.113 785.619 593.28 774.675 597.158C773.307 597.615 771.939 598.185 770.57 598.641C759.626 602.975 749.479 609.02 740.587 616.434C739.447 617.346 738.306 618.373 737.28 619.285C728.958 626.813 721.661 635.482 715.961 645.176C715.163 646.431 714.479 647.8 713.681 649.054C708.665 658.179 704.902 668.102 702.622 678.595C702.28 680.078 702.052 681.561 701.71 683.043C700.57 689.431 700 695.932 700 702.547H923.568C923.568 695.932 922.998 689.316 921.858 683.043C921.63 681.561 921.402 680.078 921.06 678.595Z" fill="url(#paint15_linear_482_2)"/>
<path opacity="0.3" d="M809.676 590.771V702.547H814.008V590.771C813.324 590.771 812.526 590.771 811.842 590.771C811.044 590.771 810.36 590.771 809.676 590.771Z" fill="url(#paint16_linear_482_2)"/>
<path opacity="0.3" d="M770.57 598.641L798.388 702.661H802.834L774.561 597.158C773.306 597.615 771.938 598.071 770.57 598.641Z" fill="url(#paint17_linear_482_2)"/>
<path opacity="0.3" d="M737.28 619.285L785.391 702.547H790.294L740.586 616.434C739.446 617.346 738.306 618.373 737.28 619.285Z" fill="url(#paint18_linear_482_2)"/>
<path opacity="0.3" d="M713.681 649.054L767.264 702.661H773.307L715.847 645.176C715.163 646.431 714.365 647.8 713.681 649.054Z" fill="url(#paint19_linear_482_2)"/>
<path opacity="0.3" d="M701.71 683.043L735.57 702.547H744.235L702.622 678.481C702.28 680.078 702.052 681.561 701.71 683.043Z" fill="url(#paint20_linear_482_2)"/>
<path opacity="0.3" d="M820.734 702.661H825.181L852.998 598.641C851.63 598.071 850.262 597.615 848.894 597.158L820.734 702.661Z" fill="url(#paint21_linear_482_2)"/>
<path opacity="0.3" d="M833.274 702.661H838.291L886.402 619.399C885.376 618.373 884.236 617.461 883.096 616.548L833.274 702.661Z" fill="url(#paint22_linear_482_2)"/>
<g opacity="0.3">
<path d="M850.262 702.661H856.304L909.888 649.054C909.204 647.8 908.406 646.431 907.607 645.176L850.262 702.661Z" fill="url(#paint23_linear_482_2)"/>
</g>
<path d="M879.447 702.661H888.112L921.972 683.157C921.744 681.675 921.402 680.192 921.06 678.709L879.447 702.661Z" fill="#084F15"/>
<path d="M1004.74 687.378C1003.26 680.762 1000.87 674.375 997.673 668.558C997.217 667.76 996.761 666.961 996.305 666.049C992.657 659.89 988.097 654.415 982.738 649.625C982.054 649.054 981.37 648.37 980.572 647.8C974.872 643.123 968.488 639.245 961.533 636.508C960.735 636.166 959.823 635.824 958.911 635.596C951.956 633.086 944.432 631.718 936.68 631.604C936.223 631.604 935.767 631.604 935.311 631.604C934.855 631.604 934.399 631.604 933.943 631.604C926.191 631.718 918.666 633.2 911.712 635.596C910.8 635.938 910.002 636.166 909.09 636.508C902.135 639.245 895.751 643.123 890.051 647.8C889.367 648.37 888.682 649.054 887.884 649.625C882.526 654.415 877.966 659.89 874.318 666.049C873.862 666.847 873.405 667.646 872.949 668.558C869.757 674.375 867.363 680.648 865.881 687.378C865.653 688.29 865.539 689.316 865.311 690.229C864.627 694.221 864.171 698.441 864.171 702.661H1006.22C1006.22 698.441 1005.88 694.221 1005.08 690.229C1005.2 689.202 1004.97 688.29 1004.74 687.378Z" fill="url(#paint24_linear_482_2)"/>
<path opacity="0.3" d="M933.942 631.604V702.661H936.679V631.604C936.223 631.604 935.767 631.604 935.31 631.604C934.854 631.604 934.398 631.604 933.942 631.604Z" fill="url(#paint25_linear_482_2)"/>
<path opacity="0.3" d="M909.203 636.508L926.874 702.547H929.724L911.825 635.482C910.913 635.938 910.001 636.166 909.203 636.508Z" fill="url(#paint26_linear_482_2)"/>
<path opacity="0.3" d="M887.998 649.739L918.552 702.661H921.744L890.164 647.914C889.366 648.484 888.682 649.054 887.998 649.739Z" fill="url(#paint27_linear_482_2)"/>
<path opacity="0.3" d="M872.949 668.558L907.037 702.547H910.914L874.431 666.049C873.975 666.961 873.405 667.76 872.949 668.558Z" fill="url(#paint28_linear_482_2)"/>
<path opacity="0.3" d="M865.425 690.229L886.972 702.661H892.444L865.995 687.377C865.767 688.29 865.539 689.202 865.425 690.229Z" fill="url(#paint29_linear_482_2)"/>
<path opacity="0.3" d="M941.011 702.661H943.861L961.532 636.622C960.734 636.28 959.822 635.938 958.91 635.71L941.011 702.661Z" fill="url(#paint30_linear_482_2)"/>
<path opacity="0.3" d="M948.992 702.661H952.184L982.738 649.739C982.054 649.168 981.37 648.484 980.572 647.914L948.992 702.661Z" fill="url(#paint31_linear_482_2)"/>
<path opacity="0.3" d="M959.822 702.661H963.698L997.787 668.672C997.331 667.874 996.875 667.075 996.419 666.163L959.822 702.661Z" fill="url(#paint32_linear_482_2)"/>
<path opacity="0.3" d="M978.292 702.661H983.764L1005.31 690.229C1005.2 689.316 1004.97 688.29 1004.74 687.377L978.292 702.661Z" fill="url(#paint33_linear_482_2)"/>
<path d="M1290 695H-6V790.58H1290V695Z" fill="url(#paint34_linear_482_2)"/>
<mask id="mask4_482_2" style="mask-type:alpha" maskUnits="userSpaceOnUse" x="-6" y="695" width="1296" height="96">
<path d="M1290 695H-6V790.58H1290V695Z" fill="url(#paint35_linear_482_2)"/>
</mask>
<g mask="url(#mask4_482_2)">
<path opacity="0.7" fill-rule="evenodd" clip-rule="evenodd" d="M544.791 733.025C536.187 742.086 527.408 748.265 518.025 747.839C515.698 747.733 513.829 747.254 512.43 746.366C511.001 745.458 510.13 744.165 509.754 742.599C509.386 741.066 509.501 739.313 509.938 737.437C510.376 735.553 511.154 733.482 512.177 731.282C515.923 723.224 523.178 712.992 530.203 703.085L530.203 703.084L530.204 703.084C530.817 702.218 531.429 701.356 532.036 700.497C535.834 695.13 539.475 689.913 542.39 685.215C545.318 680.496 547.458 676.388 548.315 673.223C548.744 671.64 548.823 670.395 548.6 669.466C548.39 668.592 547.904 667.95 547.02 667.516C546.086 667.057 544.656 666.81 542.564 666.929C540.484 667.048 537.837 667.524 534.533 668.425C528.026 670.199 520.777 674.292 512.941 680.133C505.114 685.967 496.76 693.5 488.043 702.091C475.755 714.201 462.797 728.36 449.618 742.761L449.618 742.761L449.617 742.762L449.615 742.764C444.085 748.807 438.517 754.892 432.942 760.886C414.111 781.134 395.221 800.336 377.669 813.156C360.188 825.925 343.682 832.626 329.784 827.15C322.913 824.444 319.453 820.555 319.041 815.647C318.642 810.885 321.166 805.516 325.295 799.91C333.583 788.654 348.982 775.61 363.933 763.083C364.469 762.634 365.005 762.185 365.541 761.737L365.607 761.681L365.637 761.656C372.548 755.868 379.316 750.2 385.23 744.858C391.638 739.069 396.992 733.708 400.421 729.036C402.136 726.7 403.337 724.58 403.96 722.703C404.581 720.831 404.607 719.273 404.085 717.979C403.564 716.689 402.431 715.497 400.399 714.491C398.359 713.481 395.474 712.691 391.583 712.192C379.21 710.606 363.336 714.338 345.656 721.592C328.006 728.835 308.681 739.534 289.457 751.734C251.01 776.134 213.063 806.475 189.872 826.969L188.548 825.471C211.797 804.925 249.828 774.516 288.385 750.046C307.663 737.811 327.097 727.045 344.897 719.742C362.668 712.45 378.938 708.554 391.837 710.208C395.843 710.722 398.971 711.552 401.287 712.699C403.613 713.851 405.182 715.355 405.939 717.229C406.694 719.1 406.575 721.173 405.858 723.333C405.143 725.486 403.812 727.797 402.034 730.219C398.477 735.064 392.997 740.537 386.571 746.342C380.628 751.71 373.833 757.401 366.93 763.182L366.928 763.184L366.928 763.184L366.905 763.203C366.343 763.673 365.78 764.145 365.217 764.617C350.198 777.2 335.019 790.076 326.905 801.095C322.832 806.626 320.699 811.483 321.034 815.48C321.357 819.33 324.022 822.731 330.517 825.29C343.348 830.344 359.04 824.287 376.49 811.541C393.869 798.847 412.644 779.776 431.478 759.524C437.026 753.558 442.58 747.489 448.102 741.455L448.102 741.455C461.297 727.036 474.312 712.815 486.639 700.667C495.387 692.045 503.815 684.441 511.745 678.53C519.666 672.626 527.149 668.366 534.007 666.495C537.386 665.574 540.181 665.062 542.449 664.933C544.705 664.804 546.529 665.047 547.902 665.721C549.325 666.42 550.197 667.552 550.545 668.999C550.88 670.392 550.715 672.012 550.246 673.746C549.306 677.213 547.028 681.533 544.09 686.269C541.139 691.025 537.465 696.288 533.669 701.653C533.113 702.438 532.554 703.226 531.995 704.015L531.891 704.162L531.869 704.194C524.803 714.16 517.655 724.243 513.99 732.125C513.001 734.252 512.282 736.187 511.886 737.89C511.488 739.6 511.43 741.014 511.699 742.133C511.959 743.218 512.532 744.061 513.502 744.677C514.502 745.312 515.987 745.744 518.115 745.841C526.552 746.225 534.783 740.659 543.341 731.647C550.284 724.336 557.277 714.94 564.624 705.067L564.624 705.067L564.625 705.067L564.629 705.06L564.646 705.038C566.317 702.792 568.007 700.522 569.718 698.246C578.932 685.995 588.76 673.613 599.661 664.295C610.567 654.972 622.637 648.64 636.33 648.64V650.64C623.293 650.64 611.67 656.66 600.96 665.815C590.244 674.976 580.53 687.198 571.317 699.449C569.617 701.709 567.933 703.972 566.263 706.216L566.261 706.218L566.261 706.219C558.91 716.097 551.825 725.617 544.791 733.025ZM930.118 679.721C928.124 676.595 924.504 674.744 918.241 674.939C905.784 675.329 893.887 685.391 882.226 700.694C870.611 715.938 859.459 736.067 848.413 756.032L848.26 756.307C837.288 776.138 826.414 795.791 815.346 810.1C809.785 817.29 804.134 823.187 798.348 827.084C792.55 830.989 786.56 832.924 780.373 832.071C774.271 831.229 770.219 828.668 767.888 824.716C765.59 820.818 765.065 815.733 765.618 810.025C766.723 798.619 772.202 784.103 777.757 769.964C778.195 768.848 778.634 767.735 779.072 766.625L779.099 766.557L779.099 766.556C784.229 753.538 789.146 741.064 790.686 731.593C791.525 726.432 791.318 722.391 789.803 719.673C788.35 717.067 785.546 715.44 780.51 715.44C775.557 715.44 770.739 717.628 765.95 721.613C761.156 725.601 756.459 731.335 751.774 738.286C743.922 749.938 736.209 764.846 728.189 780.35C726.632 783.358 725.064 786.389 723.482 789.423C713.765 808.046 703.496 826.763 691.981 840.826C680.48 854.872 667.568 864.48 652.53 864.48C645.101 864.48 640.24 862.546 637.625 858.821C635.041 855.141 634.879 850.019 636.059 844.196C637.246 838.339 639.839 831.537 643.074 824.287C645.814 818.146 649.036 811.636 652.291 805.061L652.292 805.06L652.292 805.06C652.882 803.867 653.474 802.673 654.063 801.477C661.782 785.837 669.18 770.207 670.674 758.108C671.418 752.081 670.671 747.107 667.942 743.459C665.223 739.823 660.374 737.289 652.431 736.495C626.854 733.937 600.905 745.128 578.778 760.301C556.669 775.461 538.518 794.501 528.582 807.39L526.998 806.169C537.042 793.139 555.341 773.947 577.647 758.651C599.935 743.368 626.366 731.879 652.63 734.505C660.886 735.331 666.365 738.011 669.544 742.261C672.712 746.497 673.433 752.079 672.659 758.353C671.115 770.858 663.528 786.818 655.857 802.363C655.265 803.563 654.672 804.76 654.08 805.955L654.08 805.956C650.824 812.533 647.623 819.001 644.9 825.102C641.68 832.319 639.161 838.958 638.019 844.593C636.87 850.262 637.163 854.683 639.262 857.672C641.33 860.618 645.38 862.48 652.53 862.48C666.652 862.48 679.052 853.458 690.434 839.559C701.801 825.677 711.985 807.134 721.708 788.497C723.282 785.482 724.844 782.463 726.396 779.462L726.397 779.46C734.415 763.96 742.193 748.925 750.116 737.169C754.847 730.148 759.668 724.238 764.67 720.075C769.677 715.91 774.933 713.44 780.51 713.44C786.004 713.44 789.63 715.256 791.55 718.699C793.407 722.031 793.517 726.646 792.66 731.914C791.083 741.611 786.085 754.29 780.985 767.224L780.985 767.225C780.529 768.381 780.073 769.538 779.618 770.696C774.035 784.907 768.681 799.146 767.609 810.218C767.073 815.748 767.625 820.332 769.611 823.7C771.564 827.012 775.004 829.311 780.647 830.089C786.206 830.856 791.707 829.146 797.23 825.425C802.765 821.698 808.264 815.988 813.764 808.877C824.738 794.689 835.552 775.143 846.569 755.233L846.663 755.063C857.688 735.136 868.913 714.866 880.636 699.482C892.313 684.157 904.716 673.361 918.179 672.94C924.876 672.731 929.305 674.728 931.804 678.645C934.24 682.463 934.676 687.872 934.038 694.115C933.396 700.392 931.642 707.719 929.482 715.526C928.401 719.435 927.214 723.477 926.008 727.58L925.953 727.765C924.764 731.811 923.558 735.915 922.413 740.021C920.088 748.362 918.026 756.679 916.89 764.466C915.753 772.26 915.553 779.458 916.908 785.58C918.258 791.677 921.141 796.682 926.178 800.184C931.238 803.702 938.581 805.78 948.99 805.78V807.78C938.339 807.78 930.546 805.656 925.037 801.827C919.506 797.982 916.391 792.495 914.956 786.012C913.526 779.553 913.757 772.083 914.911 764.177C916.065 756.264 918.155 747.85 920.487 739.484C921.632 735.375 922.839 731.27 924.024 727.238L924.03 727.216L924.089 727.016C925.296 722.911 926.478 718.884 927.555 714.993C929.71 707.201 931.425 700.011 932.048 693.911C932.676 687.775 932.175 682.946 930.118 679.721ZM1243.17 774.093C1241.3 767.859 1237.38 761.044 1232.16 753.961C1226.94 746.869 1220.39 739.455 1213.21 732.021C1201.25 719.632 1187.48 707.138 1175.15 695.942L1175.15 695.942C1172.69 693.706 1170.28 691.522 1167.96 689.402C1160.97 683.023 1154.74 677.219 1149.94 672.275C1145.09 667.294 1141.82 663.301 1140.61 660.53C1140 659.13 1140.04 658.328 1140.3 657.885C1140.55 657.45 1141.23 656.963 1142.95 656.792C1146.36 656.453 1152.62 657.483 1162.56 660.322L1163.11 658.398C1153.2 655.567 1146.59 654.42 1142.75 654.802C1140.85 654.992 1139.31 655.59 1138.56 656.891C1137.82 658.184 1138.1 659.768 1138.78 661.329C1140.15 664.481 1143.69 668.715 1148.5 673.669C1153.35 678.66 1159.63 684.5 1166.61 690.878C1168.94 693.007 1171.35 695.197 1173.82 697.436C1186.15 708.633 1199.86 721.074 1211.77 733.41C1218.92 740.81 1225.41 748.153 1230.55 755.147C1235.71 762.15 1239.48 768.751 1241.25 774.667C1242.15 777.673 1242.68 780.087 1242.88 781.979C1243.07 783.891 1242.92 785.163 1242.57 785.959C1242.26 786.679 1241.77 787.042 1241.05 787.171C1240.25 787.315 1239.11 787.17 1237.57 786.647C1234.52 785.604 1230.38 783.228 1225.34 779.869C1220.31 776.524 1214.46 772.26 1207.97 767.499C1207.17 766.91 1206.36 766.313 1205.54 765.71C1193.11 756.573 1178.6 745.907 1163.45 736.622C1147.32 726.729 1130.4 718.355 1114.43 715.08C1106.53 713.459 1100.98 712.776 1097.42 712.967C1095.66 713.061 1094.24 713.376 1093.27 714.025C1092.76 714.362 1092.37 714.798 1092.12 715.342C1091.88 715.883 1091.83 716.463 1091.9 717.043C1092.04 718.164 1092.66 719.382 1093.54 720.641C1094.44 721.922 1095.68 723.349 1097.2 724.902C1100.22 728.009 1104.42 731.706 1109.33 735.859C1112.24 738.318 1115.41 740.94 1118.74 743.702L1118.74 743.706C1126.69 750.296 1135.6 757.681 1144.31 765.554C1156.67 776.726 1168.55 788.81 1176.58 800.855C1178.59 803.866 1179.91 806.271 1180.64 808.144C1181.38 810.057 1181.43 811.224 1181.18 811.883C1180.98 812.42 1180.49 812.854 1179.29 813.009C1178.06 813.168 1176.3 812.992 1174.02 812.463C1169.47 811.409 1163.18 809.042 1155.56 805.788C1147.96 802.539 1139.11 798.433 1129.44 793.926L1127.02 792.802C1108.24 784.047 1086.63 773.973 1065.46 765.878C1043.39 757.441 1021.69 751.109 1004.09 750.7C997.072 750.537 991.819 751.234 988.125 752.702C984.396 754.185 982.177 756.495 981.46 759.53C980.761 762.49 981.549 765.918 983.292 769.559C985.044 773.22 987.824 777.229 991.314 781.419C1005.26 798.16 1031.03 818.393 1050.48 831.901L1051.62 830.259C1032.19 816.767 1006.61 796.662 992.851 780.139C989.415 776.013 986.748 772.148 985.096 768.696C983.434 765.224 982.861 762.3 983.407 759.989C983.935 757.752 985.569 755.871 988.864 754.561C992.195 753.236 997.137 752.539 1004.05 752.7C1021.28 753.101 1042.71 759.324 1064.74 767.746C1085.85 775.815 1107.4 785.862 1126.2 794.624L1128.59 795.739C1138.26 800.243 1147.14 804.363 1154.78 807.627C1162.4 810.884 1168.83 813.314 1173.57 814.411C1175.92 814.958 1177.96 815.197 1179.54 814.993C1181.15 814.785 1182.5 814.078 1183.06 812.58C1183.57 811.205 1183.29 809.443 1182.5 807.418C1181.7 805.352 1180.29 802.809 1178.24 799.745C1170.07 787.49 1158.05 775.274 1145.66 764.07C1136.91 756.168 1127.95 748.735 1119.98 742.136L1119.98 742.134L1119.98 742.131C1116.65 739.377 1113.51 736.768 1110.62 734.331C1105.71 730.181 1101.58 726.538 1098.63 723.506C1097.15 721.99 1095.99 720.649 1095.18 719.492C1094.35 718.313 1093.96 717.424 1093.88 716.798C1093.85 716.505 1093.89 716.302 1093.95 716.154C1094.02 716.008 1094.14 715.849 1094.38 715.689C1094.9 715.343 1095.88 715.053 1097.53 714.964C1100.81 714.788 1106.14 715.421 1114.03 717.04C1129.65 720.245 1146.34 728.476 1162.41 738.327C1177.48 747.566 1191.92 758.186 1204.37 767.33C1205.18 767.931 1205.99 768.524 1206.79 769.111C1213.27 773.868 1219.16 778.159 1224.23 781.534C1229.28 784.896 1233.6 787.405 1236.93 788.54C1238.58 789.105 1240.11 789.371 1241.4 789.14C1242.78 788.894 1243.82 788.096 1244.41 786.76C1244.96 785.498 1245.08 783.819 1244.86 781.774C1244.65 779.709 1244.09 777.162 1243.17 774.093Z" fill="url(#paint36_linear_482_2)"/>
<path opacity="0.1" d="M382.158 728.448C248.928 728.448 226.558 772.701 -8.42969 772.701V842.42H1290V693.38C1004.91 693.38 1041.61 755.584 796.032 755.584C550.46 755.584 497.535 728.448 382.158 728.448Z" fill="url(#paint37_linear_482_2)"/>
</g>
<path opacity="0.2" d="M469.507 400.869C583.589 286.787 583.629 101.784 469.598 -12.3471C355.566 -126.478 170.644 -126.519 56.5626 -12.4372C-57.5188 101.644 -57.5592 286.647 56.4724 400.778C170.504 514.91 355.426 514.95 469.507 400.869Z" fill="url(#paint38_linear_482_2)"/>
<path d="M73.4381 419.741H78.9824V786.347H73.4381V419.741Z" fill="#0C5E59"/>
<path d="M37.6076 388.141C51.141 388.141 63.9012 397.839 72.7946 406.762C66.8012 398.227 58.4878 387.947 52.1077 385.813C41.281 382.322 32.1942 384.068 32.1942 384.068C32.1942 384.068 42.4409 369.714 57.5211 376.503C64.2878 379.412 69.8945 388.917 73.9545 398.033C71.6345 389.499 70.0879 379.412 71.4412 370.102C75.1146 346.826 101.215 344.886 101.215 344.886C101.215 344.886 86.7147 365.059 84.008 388.917C83.6213 392.02 83.4279 395.124 83.2346 398.033C85.5546 384.262 90.9681 367.774 104.115 359.046C136.788 337.321 157.282 375.727 157.282 375.727C157.282 375.727 138.528 364.089 113.975 376.503C94.6414 386.201 86.328 407.344 83.6213 415.684C86.908 409.284 100.248 385.425 121.902 381.74C154.382 376.309 162.695 417.624 162.695 417.624C162.695 417.624 144.135 402.689 121.128 403.658C103.341 404.434 90.388 411.805 84.008 417.624C87.2947 416.654 94.8347 414.909 103.535 414.909C132.342 414.521 138.335 453.12 138.335 453.12L83.6213 419.564C85.9413 424.025 90.7747 433.336 93.4814 439.93C97.1548 448.853 94.8347 468.638 94.8347 468.638C94.8347 468.638 85.9413 453.508 83.428 443.616C80.9146 434.111 81.4947 424.219 81.8813 419.564L44.761 459.715C44.761 459.715 35.6743 435.275 63.5145 423.443C67.1879 421.891 70.4745 420.534 72.9879 419.564C66.2211 420.534 58.1011 423.249 49.7877 428.68C33.5475 439.155 23.3008 453.508 23.3008 453.508C23.3008 453.508 13.2474 423.831 37.9943 412.193C46.1143 408.314 55.3944 408.896 63.3211 410.641C57.3277 407.15 49.5943 404.628 40.1209 405.792C17.6941 408.508 11.5074 424.607 11.5074 424.607C11.5074 424.607 5.12732 387.947 37.6076 388.141Z" fill="url(#paint39_linear_482_2)"/>
<path d="M231.375 762.59C228.988 751.607 225.05 741.221 219.8 731.671C219.084 730.358 218.249 728.925 217.414 727.612C211.328 717.465 203.81 708.392 195.099 700.513C194.025 699.439 192.832 698.483 191.639 697.528C182.331 689.769 171.711 683.442 160.256 678.905C158.824 678.308 157.392 677.831 155.96 677.353C144.505 673.295 132.095 671.026 119.327 670.788C118.611 670.788 117.776 670.788 117.06 670.788C116.344 670.788 115.508 670.788 114.792 670.788C101.905 671.026 89.6145 673.295 78.1591 677.353C76.7272 677.831 75.2953 678.428 73.8633 678.905C62.408 683.442 51.7879 689.769 42.4804 697.528C41.2871 698.483 40.0938 699.558 39.0199 700.513C30.309 708.392 22.6721 717.465 16.7058 727.612C15.8705 728.925 15.1545 730.358 14.3192 731.671C9.06884 741.221 5.13108 751.607 2.74454 762.59C2.38656 764.142 2.14788 765.694 1.7899 767.246C0.596634 773.931 0 780.736 0 787.66H234C234 780.736 233.403 773.812 232.21 767.246C231.971 765.694 231.733 764.142 231.375 762.59Z" fill="url(#paint40_linear_482_2)"/>
<path fill-rule="evenodd" clip-rule="evenodd" d="M114.793 670.668V787.66H119.327V670.668H117.06H114.793ZM73.8635 678.905L102.979 787.779H107.633L78.04 677.353C77.696 677.479 77.3438 677.604 76.9855 677.731L76.9854 677.731L76.9853 677.731L76.9852 677.731L76.9852 677.731L76.9851 677.731L76.985 677.731L76.9849 677.731C75.9764 678.09 74.92 678.465 73.8635 678.905ZM89.376 787.66L39.0201 700.513L39.3425 700.226L39.3427 700.226C40.3305 699.346 41.4055 698.389 42.4805 697.528L94.507 787.66H89.376ZM14.3194 731.671L70.4031 787.779H76.7274L16.5866 727.612C16.2286 728.269 15.8408 728.955 15.453 729.641C15.0652 730.328 14.6774 731.014 14.3194 731.671ZM37.2301 787.66L1.79004 767.246C1.98763 766.389 2.14888 765.533 2.3139 764.656L2.31392 764.656C2.44786 763.944 2.5843 763.219 2.74468 762.471L46.299 787.66H37.2301ZM126.367 787.779H131.021L160.137 678.905C158.705 678.308 157.273 677.831 155.841 677.353L126.367 787.779ZM144.744 787.779H139.493L191.639 697.648C192.832 698.603 194.026 699.558 195.1 700.632L144.744 787.779ZM157.273 787.779H163.597L219.681 731.671C218.965 730.358 218.13 728.925 217.294 727.612L157.273 787.779ZM196.89 787.779H187.821L231.375 762.709C231.733 764.261 232.091 765.813 232.33 767.365L196.89 787.779Z" fill="url(#paint41_linear_482_2)"/>
<path d="M65.373 672.941C54.4039 672.941 50.2904 663.339 50.2904 649.965C50.2904 636.59 46.5197 625.616 31.7799 624.931C12.584 624.245 14.298 642.763 14.298 665.397C14.298 694.203 4.01441 675.685 -10.3825 691.803C-22.7228 705.52 -6.95461 729.869 -2.15563 737.07H59.8883C61.945 733.298 67.0867 724.039 72.9141 712.722C85.9399 688.716 76.3421 672.941 65.373 672.941Z" fill="url(#paint42_linear_482_2)"/>
<path opacity="0.2" fill-rule="evenodd" clip-rule="evenodd" d="M35.893 677.4H32.8081V720.407L19.849 703.121L17.3809 704.973L32.8081 725.551V737.07H35.893V704.576L48.9655 688.356L46.5639 686.418L35.893 699.659V677.4Z" fill="white"/>
<path d="M78.0558 737.413H-13.8105V788.511H78.0558V737.413Z" fill="white"/>
<path d="M1285 -14H0V786H1185C1240.23 786 1285 741.228 1285 686V-14Z" fill="url(#paint43_linear_482_2)"/>
</g>
<defs>
<linearGradient id="paint0_linear_482_2" x1="793" y1="976" x2="-63.5252" y2="244.836" gradientUnits="userSpaceOnUse">
<stop stop-color="#FFEDBA"/>
<stop offset="1" stop-color="#EE4D47"/>
</linearGradient>
<linearGradient id="paint1_linear_482_2" x1="865" y1="-226" x2="865" y2="878" gradientUnits="userSpaceOnUse">
<stop stop-color="#F4A984"/>
<stop offset="1" stop-color="#F4A984" stop-opacity="0"/>
</linearGradient>
<linearGradient id="paint2_linear_482_2" x1="1098.95" y1="433.562" x2="1098.95" y2="713.313" gradientUnits="userSpaceOnUse">
<stop offset="0.240793" stop-color="#2CA77F"/>
<stop offset="1" stop-color="#1B8877"/>
</linearGradient>
<linearGradient id="paint3_linear_482_2" x1="1098.95" y1="433.562" x2="1098.95" y2="713.313" gradientUnits="userSpaceOnUse">
<stop offset="0.240793" stop-color="#2CA77F"/>
<stop offset="1" stop-color="#1B8877"/>
</linearGradient>
<linearGradient id="paint4_linear_482_2" x1="1098.95" y1="433.562" x2="1098.95" y2="713.313" gradientUnits="userSpaceOnUse">
<stop offset="0.240793" stop-color="#2CA77F"/>
<stop offset="1" stop-color="#1B8877"/>
</linearGradient>
<linearGradient id="paint5_linear_482_2" x1="1105.84" y1="444.726" x2="1105.84" y2="698.866" gradientUnits="userSpaceOnUse">
<stop stop-color="white"/>
<stop offset="1" stop-color="white" stop-opacity="0"/>
</linearGradient>
<linearGradient id="paint6_linear_482_2" x1="1216.82" y1="513.679" x2="1216.82" y2="707.403" gradientUnits="userSpaceOnUse">
<stop offset="0.422311" stop-color="#2CA77F"/>
<stop offset="1" stop-color="#1B8877"/>
</linearGradient>
<linearGradient id="paint7_linear_482_2" x1="1216.82" y1="513.679" x2="1216.82" y2="707.403" gradientUnits="userSpaceOnUse">
<stop offset="0.422311" stop-color="#2CA77F"/>
<stop offset="1" stop-color="#1B8877"/>
</linearGradient>
<linearGradient id="paint8_linear_482_2" x1="1215.84" y1="543.23" x2="1215.84" y2="701.493" gradientUnits="userSpaceOnUse">
<stop stop-color="white"/>
<stop offset="1" stop-color="white" stop-opacity="0"/>
</linearGradient>
<linearGradient id="paint9_linear_482_2" x1="910.478" y1="462.457" x2="910.478" y2="754.803" gradientUnits="userSpaceOnUse">
<stop offset="0.422311" stop-color="#2CA77F"/>
<stop offset="1" stop-color="#1B8877"/>
</linearGradient>
<linearGradient id="paint10_linear_482_2" x1="910.478" y1="462.457" x2="910.478" y2="754.803" gradientUnits="userSpaceOnUse">
<stop offset="0.422311" stop-color="#2CA77F"/>
<stop offset="1" stop-color="#1B8877"/>
</linearGradient>
<linearGradient id="paint11_linear_482_2" x1="902.269" y1="520.897" x2="902.269" y2="728.254" gradientUnits="userSpaceOnUse">
<stop stop-color="white"/>
<stop offset="1" stop-color="white" stop-opacity="0"/>
</linearGradient>
<linearGradient id="paint12_linear_482_2" x1="1084.16" y1="517.011" x2="1084.16" y2="576.03" gradientUnits="userSpaceOnUse">
<stop stop-color="#D3D86C"/>
<stop offset="1" stop-color="#82A637"/>
</linearGradient>
<linearGradient id="paint13_linear_482_2" x1="990.594" y1="389.877" x2="990.594" y2="497.918" gradientUnits="userSpaceOnUse">
<stop stop-color="#D3D86C"/>
<stop offset="1" stop-color="#82A637"/>
</linearGradient>
<linearGradient id="paint14_linear_482_2" x1="1251.88" y1="639.604" x2="1251.88" y2="657.714" gradientUnits="userSpaceOnUse">
<stop stop-color="#D3D86C"/>
<stop offset="1" stop-color="#82A637"/>
</linearGradient>
<linearGradient id="paint15_linear_482_2" x1="811.784" y1="554.394" x2="811.784" y2="702.547" gradientUnits="userSpaceOnUse">
<stop stop-color="#D3D86C"/>
<stop offset="1" stop-color="#82A637"/>
</linearGradient>
<linearGradient id="paint16_linear_482_2" x1="811.842" y1="590.771" x2="811.842" y2="702.547" gradientUnits="userSpaceOnUse">
<stop stop-color="#084F15" stop-opacity="0"/>
<stop offset="1" stop-color="#084F15"/>
</linearGradient>
<linearGradient id="paint17_linear_482_2" x1="786.702" y1="597.158" x2="786.702" y2="702.661" gradientUnits="userSpaceOnUse">
<stop stop-color="#084F15" stop-opacity="0"/>
<stop offset="1" stop-color="#084F15"/>
</linearGradient>
<linearGradient id="paint18_linear_482_2" x1="763.787" y1="616.434" x2="763.787" y2="702.547" gradientUnits="userSpaceOnUse">
<stop stop-color="#084F15" stop-opacity="0"/>
<stop offset="1" stop-color="#084F15"/>
</linearGradient>
<linearGradient id="paint19_linear_482_2" x1="743.494" y1="645.176" x2="743.494" y2="702.661" gradientUnits="userSpaceOnUse">
<stop stop-color="#084F15" stop-opacity="0"/>
<stop offset="1" stop-color="#084F15"/>
</linearGradient>
<linearGradient id="paint20_linear_482_2" x1="722.972" y1="678.481" x2="722.972" y2="702.547" gradientUnits="userSpaceOnUse">
<stop stop-color="#084F15" stop-opacity="0"/>
<stop offset="1" stop-color="#084F15"/>
</linearGradient>
<linearGradient id="paint21_linear_482_2" x1="836.866" y1="597.158" x2="836.866" y2="702.661" gradientUnits="userSpaceOnUse">
<stop stop-color="#084F15" stop-opacity="0"/>
<stop offset="1" stop-color="#084F15"/>
</linearGradient>
<linearGradient id="paint22_linear_482_2" x1="859.838" y1="616.548" x2="859.838" y2="702.661" gradientUnits="userSpaceOnUse">
<stop stop-color="#084F15" stop-opacity="0"/>
<stop offset="1" stop-color="#084F15"/>
</linearGradient>
<linearGradient id="paint23_linear_482_2" x1="880.075" y1="645.176" x2="880.075" y2="702.661" gradientUnits="userSpaceOnUse">
<stop stop-color="#084F15" stop-opacity="0"/>
<stop offset="1" stop-color="#084F15"/>
</linearGradient>
<linearGradient id="paint24_linear_482_2" x1="935.197" y1="608.382" x2="935.197" y2="702.661" gradientUnits="userSpaceOnUse">
<stop stop-color="#D3D86C"/>
<stop offset="1" stop-color="#82A637"/>
</linearGradient>
<linearGradient id="paint25_linear_482_2" x1="935.31" y1="631.604" x2="935.31" y2="702.661" gradientUnits="userSpaceOnUse">
<stop stop-color="#084F15" stop-opacity="0"/>
<stop offset="1" stop-color="#084F15"/>
</linearGradient>
<linearGradient id="paint26_linear_482_2" x1="919.464" y1="635.482" x2="919.464" y2="702.547" gradientUnits="userSpaceOnUse">
<stop stop-color="#084F15" stop-opacity="0"/>
<stop offset="1" stop-color="#084F15"/>
</linearGradient>
<linearGradient id="paint27_linear_482_2" x1="904.871" y1="647.914" x2="904.871" y2="702.661" gradientUnits="userSpaceOnUse">
<stop stop-color="#084F15" stop-opacity="0"/>
<stop offset="1" stop-color="#084F15"/>
</linearGradient>
<linearGradient id="paint28_linear_482_2" x1="891.931" y1="666.049" x2="891.931" y2="702.547" gradientUnits="userSpaceOnUse">
<stop stop-color="#084F15" stop-opacity="0"/>
<stop offset="1" stop-color="#084F15"/>
</linearGradient>
<linearGradient id="paint29_linear_482_2" x1="878.935" y1="687.377" x2="878.935" y2="702.661" gradientUnits="userSpaceOnUse">
<stop stop-color="#084F15" stop-opacity="0"/>
<stop offset="1" stop-color="#084F15"/>
</linearGradient>
<linearGradient id="paint30_linear_482_2" x1="951.271" y1="635.71" x2="951.271" y2="702.661" gradientUnits="userSpaceOnUse">
<stop stop-color="#084F15" stop-opacity="0"/>
<stop offset="1" stop-color="#084F15"/>
</linearGradient>
<linearGradient id="paint31_linear_482_2" x1="965.865" y1="647.914" x2="965.865" y2="702.661" gradientUnits="userSpaceOnUse">
<stop stop-color="#084F15" stop-opacity="0"/>
<stop offset="1" stop-color="#084F15"/>
</linearGradient>
<linearGradient id="paint32_linear_482_2" x1="978.804" y1="666.163" x2="978.804" y2="702.661" gradientUnits="userSpaceOnUse">
<stop stop-color="#084F15" stop-opacity="0"/>
<stop offset="1" stop-color="#084F15"/>
</linearGradient>
<linearGradient id="paint33_linear_482_2" x1="991.802" y1="687.377" x2="991.802" y2="702.661" gradientUnits="userSpaceOnUse">
<stop stop-color="#084F15" stop-opacity="0"/>
<stop offset="1" stop-color="#084F15"/>
</linearGradient>
<linearGradient id="paint34_linear_482_2" x1="319.869" y1="414.786" x2="319.869" y2="883.717" gradientUnits="userSpaceOnUse">
<stop offset="0.278352" stop-color="#EEEF99"/>
<stop offset="0.76976" stop-color="#B9D079"/>
</linearGradient>
<linearGradient id="paint35_linear_482_2" x1="319.869" y1="414.786" x2="319.869" y2="883.717" gradientUnits="userSpaceOnUse">
<stop offset="0.278352" stop-color="#EEEF99"/>
<stop offset="0.76976" stop-color="#B9D079"/>
</linearGradient>
<linearGradient id="paint36_linear_482_2" x1="716.755" y1="699.737" x2="716.755" y2="912.053" gradientUnits="userSpaceOnUse">
<stop stop-color="white"/>
<stop offset="1" stop-color="white" stop-opacity="0"/>
</linearGradient>
<linearGradient id="paint37_linear_482_2" x1="640.785" y1="636.774" x2="640.785" y2="846.992" gradientUnits="userSpaceOnUse">
<stop offset="0.164151" stop-color="#82A637"/>
<stop offset="0.890649" stop-color="#1B8877"/>
</linearGradient>
<linearGradient id="paint38_linear_482_2" x1="56.5841" y1="-110.468" x2="56.6618" y2="245.265" gradientUnits="userSpaceOnUse">
<stop stop-color="white"/>
<stop offset="1" stop-color="white" stop-opacity="0"/>
</linearGradient>
<linearGradient id="paint39_linear_482_2" x1="86.8476" y1="304.444" x2="86.8476" y2="468.638" gradientUnits="userSpaceOnUse">
<stop stop-color="#D3D86C"/>
<stop offset="1" stop-color="#82A637"/>
</linearGradient>
<linearGradient id="paint40_linear_482_2" x1="117" y1="632.593" x2="117" y2="787.66" gradientUnits="userSpaceOnUse">
<stop stop-color="#D3D86C"/>
<stop offset="1" stop-color="#82A637"/>
</linearGradient>
<linearGradient id="paint41_linear_482_2" x1="210.075" y1="670.397" x2="210.075" y2="941.894" gradientUnits="userSpaceOnUse">
<stop stop-color="#084F15" stop-opacity="0"/>
<stop offset="1" stop-color="#084F15"/>
</linearGradient>
<linearGradient id="paint42_linear_482_2" x1="32.0952" y1="624.912" x2="32.0952" y2="759.859" gradientUnits="userSpaceOnUse">
<stop offset="0.422311" stop-color="#2CA77F"/>
<stop offset="1" stop-color="#1B8877"/>
</linearGradient>
<linearGradient id="paint43_linear_482_2" x1="892.272" y1="450" x2="892.272" y2="-242" gradientUnits="userSpaceOnUse">
<stop stop-color="#FFEDBA" stop-opacity="0"/>
<stop offset="1" stop-color="#EB2A24"/>
</linearGradient>
<clipPath id="clip0_482_2">
<rect width="126.085" height="112.294" fill="white" transform="translate(1188.92 599.706)"/>
</clipPath>
</defs>
</svg>
 